<mxfile host="drawio-plugin" modified="2024-05-20T14:25:55.239Z" agent="5.0 (Windows NT 6.2; Win64; x64) AppleWebKit/537.36 (KHTML, like Gecko) Chrome/98.0.4758.102 Safari/537.36" etag="e8spufLJoce5gZ-kbjUe" version="20.5.3" type="embed" pages="3"><diagram id="23iRSUPoRavnBvh4doch" name="Page-1"><mxGraphModel dx="766" dy="524" grid="0" gridSize="10" guides="1" tooltips="1" connect="1" arrows="1" fold="1" page="1" pageScale="1" pageWidth="827" pageHeight="1169" math="0" shadow="0"><root><mxCell id="0"/><mxCell id="1" parent="0"/><mxCell id="9" value="&lt;span style=&quot;font-weight: normal; font-size: 17px;&quot;&gt;认证授权模块&lt;/span&gt;" style="shape=folder;fontStyle=1;spacingTop=10;tabWidth=40;tabHeight=14;tabPosition=left;html=1;fontFamily=Times New Roman;fontSize=17;" parent="1" vertex="1"><mxGeometry x="287" y="373" width="141" height="68" as="geometry"/></mxCell><mxCell id="10" value="&lt;span style=&quot;font-weight: normal; font-size: 17px;&quot;&gt;后台管理模块&lt;/span&gt;" style="shape=folder;fontStyle=1;spacingTop=10;tabWidth=40;tabHeight=14;tabPosition=left;html=1;fontFamily=Times New Roman;fontSize=17;" parent="1" vertex="1"><mxGeometry x="449" y="280" width="165" height="72" as="geometry"/></mxCell><mxCell id="11" value="&lt;span style=&quot;font-weight: normal; font-size: 17px;&quot;&gt;前台网页模块&lt;/span&gt;" style="shape=folder;fontStyle=1;spacingTop=10;tabWidth=40;tabHeight=14;tabPosition=left;html=1;fontFamily=Times New Roman;fontSize=17;" parent="1" vertex="1"><mxGeometry x="98" y="279" width="154" height="73" as="geometry"/></mxCell><mxCell id="17" value="" style="rounded=0;whiteSpace=wrap;html=1;fontFamily=Times New Roman;fontSize=17;" parent="1" vertex="1"><mxGeometry x="71" y="555" width="658" height="96" as="geometry"/></mxCell><mxCell id="18" value="公共模块" style="rounded=0;whiteSpace=wrap;html=1;fontFamily=Times New Roman;fontSize=17;" parent="1" vertex="1"><mxGeometry x="71" y="522" width="93" height="33" as="geometry"/></mxCell><mxCell id="19" value="&lt;span style=&quot;font-weight: normal; font-size: 17px;&quot;&gt;数据访问&lt;/span&gt;" style="shape=folder;fontStyle=1;spacingTop=10;tabWidth=40;tabHeight=14;tabPosition=left;html=1;fontFamily=Times New Roman;fontSize=17;" parent="1" vertex="1"><mxGeometry x="287" y="571" width="108" height="61" as="geometry"/></mxCell><mxCell id="13" value="&lt;span style=&quot;font-weight: normal; font-size: 17px;&quot;&gt;业务逻辑处理&lt;/span&gt;" style="shape=folder;fontStyle=1;spacingTop=10;tabWidth=40;tabHeight=14;tabPosition=left;html=1;fontFamily=Times New Roman;fontSize=17;" parent="1" vertex="1"><mxGeometry x="86" y="570" width="148" height="62" as="geometry"/></mxCell><mxCell id="20" value="&lt;span style=&quot;font-weight: normal; font-size: 17px;&quot;&gt;异常处理&lt;/span&gt;" style="shape=folder;fontStyle=1;spacingTop=10;tabWidth=40;tabHeight=14;tabPosition=left;html=1;fontFamily=Times New Roman;fontSize=17;" parent="1" vertex="1"><mxGeometry x="569" y="568" width="150" height="63.5" as="geometry"/></mxCell><mxCell id="21" value="&lt;span style=&quot;font-weight: normal; font-size: 17px;&quot;&gt;工具包&lt;/span&gt;" style="shape=folder;fontStyle=1;spacingTop=10;tabWidth=40;tabHeight=14;tabPosition=left;html=1;fontFamily=Times New Roman;fontSize=17;" parent="1" vertex="1"><mxGeometry x="428" y="570" width="108.5" height="61.5" as="geometry"/></mxCell><mxCell id="30" value="" style="endArrow=open;endSize=12;dashed=1;html=1;rounded=0;fontFamily=Times New Roman;fontSize=17;exitX=0.5;exitY=1;exitDx=0;exitDy=0;exitPerimeter=0;entryX=0;entryY=0;entryDx=0;entryDy=41;entryPerimeter=0;" parent="1" source="11" target="9" edge="1"><mxGeometry width="160" relative="1" as="geometry"><mxPoint x="322" y="525" as="sourcePoint"/><mxPoint x="482" y="525" as="targetPoint"/></mxGeometry></mxCell><mxCell id="31" value="" style="endArrow=open;endSize=12;dashed=1;html=1;rounded=0;fontFamily=Times New Roman;fontSize=17;exitX=0.5;exitY=1;exitDx=0;exitDy=0;exitPerimeter=0;entryX=0;entryY=0;entryDx=141;entryDy=41;entryPerimeter=0;" parent="1" source="10" target="9" edge="1"><mxGeometry width="160" relative="1" as="geometry"><mxPoint x="322" y="525" as="sourcePoint"/><mxPoint x="482" y="525" as="targetPoint"/></mxGeometry></mxCell><mxCell id="32" value="" style="endArrow=open;endSize=12;dashed=1;html=1;rounded=0;fontFamily=Times New Roman;fontSize=17;exitX=0.5;exitY=1;exitDx=0;exitDy=0;exitPerimeter=0;entryX=0;entryY=0;entryDx=74;entryDy=14;entryPerimeter=0;" parent="1" source="9" target="19" edge="1"><mxGeometry width="160" relative="1" as="geometry"><mxPoint x="322" y="525" as="sourcePoint"/><mxPoint x="482" y="525" as="targetPoint"/></mxGeometry></mxCell><mxCell id="33" value="" style="endArrow=open;endSize=12;dashed=1;html=1;rounded=0;fontFamily=Times New Roman;fontSize=17;exitX=0.5;exitY=1;exitDx=0;exitDy=0;exitPerimeter=0;entryX=0;entryY=0;entryDx=74;entryDy=14;entryPerimeter=0;" parent="1" source="11" target="19" edge="1"><mxGeometry width="160" relative="1" as="geometry"><mxPoint x="322" y="525" as="sourcePoint"/><mxPoint x="359" y="599" as="targetPoint"/></mxGeometry></mxCell><mxCell id="34" value="" style="endArrow=open;endSize=12;dashed=1;html=1;rounded=0;fontFamily=Times New Roman;fontSize=17;exitX=0.5;exitY=1;exitDx=0;exitDy=0;exitPerimeter=0;entryX=0;entryY=0;entryDx=74;entryDy=14;entryPerimeter=0;" parent="1" source="10" target="19" edge="1"><mxGeometry width="160" relative="1" as="geometry"><mxPoint x="322" y="525" as="sourcePoint"/><mxPoint x="482" y="525" as="targetPoint"/></mxGeometry></mxCell><mxCell id="35" value="" style="endArrow=open;endSize=12;dashed=1;html=1;rounded=0;fontFamily=Times New Roman;fontSize=17;exitX=0.5;exitY=1;exitDx=0;exitDy=0;exitPerimeter=0;entryX=0;entryY=0;entryDx=94;entryDy=14;entryPerimeter=0;" parent="1" source="9" target="13" edge="1"><mxGeometry x="0.2535" y="-3" width="160" relative="1" as="geometry"><mxPoint x="322" y="525" as="sourcePoint"/><mxPoint x="482" y="525" as="targetPoint"/><mxPoint as="offset"/></mxGeometry></mxCell><mxCell id="36" value="" style="endArrow=open;endSize=12;dashed=1;html=1;rounded=0;fontFamily=Times New Roman;fontSize=17;exitX=0;exitY=0;exitDx=148;exitDy=32;exitPerimeter=0;entryX=0;entryY=0;entryDx=0;entryDy=32;entryPerimeter=0;" parent="1" source="13" target="19" edge="1"><mxGeometry x="-0.1039" y="13" width="160" relative="1" as="geometry"><mxPoint x="322" y="525" as="sourcePoint"/><mxPoint x="482" y="525" as="targetPoint"/><mxPoint as="offset"/></mxGeometry></mxCell><mxCell id="41" value="" style="endArrow=open;endSize=12;dashed=1;html=1;rounded=0;fontFamily=Times New Roman;fontSize=17;exitX=0.5;exitY=1;exitDx=0;exitDy=0;exitPerimeter=0;entryX=0.5;entryY=1;entryDx=0;entryDy=0;entryPerimeter=0;" parent="1" source="13" target="21" edge="1"><mxGeometry x="0.2694" y="13" width="160" relative="1" as="geometry"><mxPoint x="268" y="701" as="sourcePoint"/><mxPoint x="428" y="701" as="targetPoint"/><Array as="points"><mxPoint x="160" y="679"/><mxPoint x="482" y="677"/></Array><mxPoint as="offset"/></mxGeometry></mxCell><mxCell id="42" value="" style="endArrow=open;endSize=12;dashed=1;html=1;rounded=0;fontFamily=Times New Roman;fontSize=17;exitX=0.5;exitY=1;exitDx=0;exitDy=0;exitPerimeter=0;entryX=0.5;entryY=1;entryDx=0;entryDy=0;entryPerimeter=0;" parent="1" source="13" target="20" edge="1"><mxGeometry x="0.5472" y="-8" width="160" relative="1" as="geometry"><mxPoint x="322" y="525" as="sourcePoint"/><mxPoint x="482" y="525" as="targetPoint"/><Array as="points"><mxPoint x="160" y="679"/><mxPoint x="644" y="677"/></Array><mxPoint as="offset"/></mxGeometry></mxCell></root></mxGraphModel></diagram><diagram name="Page-1" id="SIFDoDU8E1BjrqX_g3Xv"><mxGraphModel dx="1857" dy="532" grid="0" gridSize="10" guides="0" tooltips="1" connect="1" arrows="1" fold="1" page="1" pageScale="1" pageWidth="850" pageHeight="1100" background="#ffffff" math="0" shadow="0"><root><mxCell id="0"/><mxCell id="1" parent="0"/><mxCell id="2" value="logisticsInfo&lt;br&gt;ManagementContrller" style="shape=folder;fontStyle=1;spacingTop=10;tabWidth=40;tabHeight=14;tabPosition=left;html=1;fillColor=#f8cecc;strokeColor=#b85450;" parent="1" vertex="1"><mxGeometry x="10" y="100" width="140" height="60" as="geometry"/></mxCell><mxCell id="3" value="logisticsInfo&lt;br&gt;ManagementService" style="shape=folder;fontStyle=1;spacingTop=10;tabWidth=40;tabHeight=14;tabPosition=left;html=1;fillColor=#f8cecc;strokeColor=#b85450;" parent="1" vertex="1"><mxGeometry x="240" y="100" width="130" height="60" as="geometry"/></mxCell><mxCell id="5" value="DataModel" style="shape=folder;fontStyle=1;spacingTop=10;tabWidth=40;tabHeight=14;tabPosition=left;html=1;fillColor=#f8cecc;strokeColor=#b85450;" parent="1" vertex="1"><mxGeometry x="660" y="230" width="100" height="50" as="geometry"/></mxCell><mxCell id="4" value="logisticsInfo&lt;br&gt;ManagementDao" style="shape=folder;fontStyle=1;spacingTop=10;tabWidth=40;tabHeight=14;tabPosition=left;html=1;fillColor=#f8cecc;strokeColor=#b85450;" parent="1" vertex="1"><mxGeometry x="460" y="100" width="110" height="60" as="geometry"/></mxCell><mxCell id="30" value="Use" style="endArrow=open;endSize=12;dashed=1;html=1;rounded=0;fillColor=#f8cecc;strokeColor=#b85450;" parent="1" edge="1"><mxGeometry width="160" relative="1" as="geometry"><mxPoint x="150" y="140" as="sourcePoint"/><mxPoint x="240" y="140" as="targetPoint"/></mxGeometry></mxCell><mxCell id="31" value="Use" style="endArrow=open;endSize=12;dashed=1;html=1;rounded=0;fillColor=#f8cecc;strokeColor=#b85450;" parent="1" edge="1"><mxGeometry width="160" relative="1" as="geometry"><mxPoint x="370" y="140" as="sourcePoint"/><mxPoint x="460" y="140" as="targetPoint"/></mxGeometry></mxCell><mxCell id="33" value="purchaseInventory&lt;br&gt;ManagementContrller" style="shape=folder;fontStyle=1;spacingTop=10;tabWidth=40;tabHeight=14;tabPosition=left;html=1;fillColor=#f8cecc;strokeColor=#b85450;" parent="1" vertex="1"><mxGeometry x="10" y="220" width="140" height="60" as="geometry"/></mxCell><mxCell id="34" value="purchaseInventory&lt;br&gt;ManagementService" style="shape=folder;fontStyle=1;spacingTop=10;tabWidth=40;tabHeight=14;tabPosition=left;html=1;fillColor=#f8cecc;strokeColor=#b85450;" parent="1" vertex="1"><mxGeometry x="240" y="220" width="130" height="60" as="geometry"/></mxCell><mxCell id="35" value="purchaseInventory&lt;br&gt;ManagementDao" style="shape=folder;fontStyle=1;spacingTop=10;tabWidth=40;tabHeight=14;tabPosition=left;html=1;fillColor=#f8cecc;strokeColor=#b85450;" parent="1" vertex="1"><mxGeometry x="460" y="220" width="110" height="60" as="geometry"/></mxCell><mxCell id="36" value="Use" style="endArrow=open;endSize=12;dashed=1;html=1;rounded=0;fillColor=#f8cecc;strokeColor=#b85450;" parent="1" edge="1"><mxGeometry width="160" relative="1" as="geometry"><mxPoint x="150" y="260" as="sourcePoint"/><mxPoint x="240" y="260" as="targetPoint"/></mxGeometry></mxCell><mxCell id="37" value="Use" style="endArrow=open;endSize=12;dashed=1;html=1;rounded=0;fillColor=#f8cecc;strokeColor=#b85450;" parent="1" edge="1"><mxGeometry width="160" relative="1" as="geometry"><mxPoint x="370" y="260" as="sourcePoint"/><mxPoint x="460" y="260" as="targetPoint"/></mxGeometry></mxCell><mxCell id="38" value="transport&lt;br&gt;ManagementContrller" style="shape=folder;fontStyle=1;spacingTop=10;tabWidth=40;tabHeight=14;tabPosition=left;html=1;fillColor=#f8cecc;strokeColor=#b85450;" parent="1" vertex="1"><mxGeometry x="10" y="340" width="140" height="60" as="geometry"/></mxCell><mxCell id="39" value="transport&lt;br&gt;ManagementService" style="shape=folder;fontStyle=1;spacingTop=10;tabWidth=40;tabHeight=14;tabPosition=left;html=1;fillColor=#f8cecc;strokeColor=#b85450;" parent="1" vertex="1"><mxGeometry x="250" y="340" width="130" height="60" as="geometry"/></mxCell><mxCell id="40" value="transport&lt;br&gt;ManagementDao" style="shape=folder;fontStyle=1;spacingTop=10;tabWidth=40;tabHeight=14;tabPosition=left;html=1;fillColor=#f8cecc;strokeColor=#b85450;" parent="1" vertex="1"><mxGeometry x="460" y="340" width="110" height="60" as="geometry"/></mxCell><mxCell id="41" value="Use" style="endArrow=open;endSize=12;dashed=1;html=1;rounded=0;fillColor=#f8cecc;strokeColor=#b85450;" parent="1" edge="1"><mxGeometry width="160" relative="1" as="geometry"><mxPoint x="150" y="380" as="sourcePoint"/><mxPoint x="250" y="380" as="targetPoint"/></mxGeometry></mxCell><mxCell id="42" value="Use" style="endArrow=open;endSize=12;dashed=1;html=1;rounded=0;fillColor=#f8cecc;strokeColor=#b85450;" parent="1" edge="1"><mxGeometry width="160" relative="1" as="geometry"><mxPoint x="380" y="380" as="sourcePoint"/><mxPoint x="460" y="380" as="targetPoint"/></mxGeometry></mxCell><mxCell id="43" value="Use" style="endArrow=open;endSize=12;dashed=1;html=1;rounded=0;exitX=0;exitY=0;exitDx=110;exitDy=37;exitPerimeter=0;entryX=0;entryY=0;entryDx=0;entryDy=32;entryPerimeter=0;fillColor=#f8cecc;strokeColor=#b85450;" parent="1" source="4" target="5" edge="1"><mxGeometry width="160" relative="1" as="geometry"><mxPoint x="490" y="250" as="sourcePoint"/><mxPoint x="660" y="270" as="targetPoint"/></mxGeometry></mxCell><mxCell id="45" value="Use" style="endArrow=open;endSize=12;dashed=1;html=1;rounded=0;entryX=0;entryY=0;entryDx=0;entryDy=32;entryPerimeter=0;fillColor=#f8cecc;strokeColor=#b85450;" parent="1" target="5" edge="1"><mxGeometry width="160" relative="1" as="geometry"><mxPoint x="570" y="260" as="sourcePoint"/><mxPoint x="730" y="260" as="targetPoint"/></mxGeometry></mxCell><mxCell id="46" value="Use" style="endArrow=open;endSize=12;dashed=1;html=1;rounded=0;fillColor=#f8cecc;strokeColor=#b85450;" parent="1" edge="1"><mxGeometry width="160" relative="1" as="geometry"><mxPoint x="570" y="380" as="sourcePoint"/><mxPoint x="660" y="260" as="targetPoint"/></mxGeometry></mxCell><mxCell id="47" value="logisticsInfo&lt;br&gt;ManagementContrller" style="shape=folder;fontStyle=1;spacingTop=10;tabWidth=40;tabHeight=14;tabPosition=left;html=1;fillColor=#fff2cc;strokeColor=#d6b656;" parent="1" vertex="1"><mxGeometry x="210" y="480" width="140" height="60" as="geometry"/></mxCell><mxCell id="48" value="purchaseInventory&lt;br&gt;ManagementContrller" style="shape=folder;fontStyle=1;spacingTop=10;tabWidth=40;tabHeight=14;tabPosition=left;html=1;fillColor=#fff2cc;strokeColor=#d6b656;" parent="1" vertex="1"><mxGeometry x="420" y="480" width="140" height="60" as="geometry"/></mxCell><mxCell id="49" value="transport&lt;br&gt;ManagementContrller" style="shape=folder;fontStyle=1;spacingTop=10;tabWidth=40;tabHeight=14;tabPosition=left;html=1;fillColor=#fff2cc;strokeColor=#d6b656;" parent="1" vertex="1"><mxGeometry x="310" y="590" width="140" height="60" as="geometry"/></mxCell><mxCell id="50" value="" style="ellipse;shape=umlControl;whiteSpace=wrap;html=1;verticalAlign=middle;fillColor=#fff2cc;strokeColor=#d6b656;" parent="1" vertex="1"><mxGeometry x="40" y="790" width="80" height="50" as="geometry"/></mxCell><mxCell id="51" value="&lt;b&gt;&lt;span style=&quot;&quot;&gt;Address&lt;/span&gt;&lt;span style=&quot;&quot;&gt;Controller&lt;br&gt;(from 地址基本信息模块)&lt;br&gt;&lt;/span&gt;&lt;/b&gt;" style="text;html=1;align=center;verticalAlign=middle;resizable=0;points=[];autosize=1;strokeColor=none;fillColor=none;" parent="1" vertex="1"><mxGeometry x="5" y="835" width="160" height="40" as="geometry"/></mxCell><mxCell id="56" value="list()" style="label;fontStyle=0;strokeColor=none;fillColor=none;align=left;verticalAlign=top;overflow=hidden;spacingLeft=28;spacingRight=4;rotatable=0;points=[[0,0.5],[1,0.5]];portConstraint=eastwest;imageWidth=16;imageHeight=16;image=img/clipart/Gear_128x128.png" parent="1" vertex="1"><mxGeometry x="40" y="870" width="120" height="26" as="geometry"/></mxCell><mxCell id="57" value="info()" style="label;fontStyle=0;strokeColor=none;fillColor=none;align=left;verticalAlign=top;overflow=hidden;spacingLeft=28;spacingRight=4;rotatable=0;points=[[0,0.5],[1,0.5]];portConstraint=eastwest;imageWidth=16;imageHeight=16;image=img/clipart/Gear_128x128.png" parent="1" vertex="1"><mxGeometry x="40" y="896" width="120" height="26" as="geometry"/></mxCell><mxCell id="59" value="info()" style="label;fontStyle=0;strokeColor=none;fillColor=none;align=left;verticalAlign=top;overflow=hidden;spacingLeft=28;spacingRight=4;rotatable=0;points=[[0,0.5],[1,0.5]];portConstraint=eastwest;imageWidth=16;imageHeight=16;image=img/clipart/Gear_128x128.png" parent="1" vertex="1"><mxGeometry x="40" y="922" width="120" height="26" as="geometry"/></mxCell><mxCell id="60" value="save()" style="label;fontStyle=0;strokeColor=none;fillColor=none;align=left;verticalAlign=top;overflow=hidden;spacingLeft=28;spacingRight=4;rotatable=0;points=[[0,0.5],[1,0.5]];portConstraint=eastwest;imageWidth=16;imageHeight=16;image=img/clipart/Gear_128x128.png" parent="1" vertex="1"><mxGeometry x="40" y="948" width="120" height="26" as="geometry"/></mxCell><mxCell id="62" value="update()" style="label;fontStyle=0;strokeColor=none;fillColor=none;align=left;verticalAlign=top;overflow=hidden;spacingLeft=28;spacingRight=4;rotatable=0;points=[[0,0.5],[1,0.5]];portConstraint=eastwest;imageWidth=16;imageHeight=16;image=img/clipart/Gear_128x128.png" parent="1" vertex="1"><mxGeometry x="40" y="970" width="120" height="26" as="geometry"/></mxCell><mxCell id="63" value="delete()" style="label;fontStyle=0;strokeColor=none;fillColor=none;align=left;verticalAlign=top;overflow=hidden;spacingLeft=28;spacingRight=4;rotatable=0;points=[[0,0.5],[1,0.5]];portConstraint=eastwest;imageWidth=16;imageHeight=16;image=img/clipart/Gear_128x128.png" parent="1" vertex="1"><mxGeometry x="40" y="996" width="120" height="26" as="geometry"/></mxCell><mxCell id="70" value="" style="line;strokeWidth=1;fillColor=#e51400;align=left;verticalAlign=middle;spacingTop=-1;spacingLeft=3;spacingRight=3;rotatable=0;labelPosition=right;points=[];portConstraint=eastwest;strokeColor=#B20000;fontColor=#ffffff;" parent="1" vertex="1"><mxGeometry x="10" y="862" width="160" height="8" as="geometry"/></mxCell><mxCell id="71" value="" style="line;strokeWidth=1;fillColor=#e51400;align=left;verticalAlign=middle;spacingTop=-1;spacingLeft=3;spacingRight=3;rotatable=0;labelPosition=right;points=[];portConstraint=eastwest;strokeColor=#B20000;fontColor=#ffffff;" parent="1" vertex="1"><mxGeometry x="10" y="867" width="160" height="8" as="geometry"/></mxCell><mxCell id="86" value="" style="ellipse;shape=umlControl;whiteSpace=wrap;html=1;verticalAlign=middle;fillColor=#fff2cc;strokeColor=#d6b656;" parent="1" vertex="1"><mxGeometry x="220" y="790" width="80" height="50" as="geometry"/></mxCell><mxCell id="87" value="&lt;b&gt;&lt;span style=&quot;&quot;&gt;BuildingController&lt;br&gt;(from 建筑构物信息模块)&lt;br&gt;&lt;/span&gt;&lt;/b&gt;" style="text;html=1;align=center;verticalAlign=middle;resizable=0;points=[];autosize=1;strokeColor=none;fillColor=none;" parent="1" vertex="1"><mxGeometry x="185" y="835" width="160" height="40" as="geometry"/></mxCell><mxCell id="88" value="list()" style="label;fontStyle=0;strokeColor=none;fillColor=none;align=left;verticalAlign=top;overflow=hidden;spacingLeft=28;spacingRight=4;rotatable=0;points=[[0,0.5],[1,0.5]];portConstraint=eastwest;imageWidth=16;imageHeight=16;image=img/clipart/Gear_128x128.png" parent="1" vertex="1"><mxGeometry x="220" y="870" width="120" height="26" as="geometry"/></mxCell><mxCell id="89" value="info()" style="label;fontStyle=0;strokeColor=none;fillColor=none;align=left;verticalAlign=top;overflow=hidden;spacingLeft=28;spacingRight=4;rotatable=0;points=[[0,0.5],[1,0.5]];portConstraint=eastwest;imageWidth=16;imageHeight=16;image=img/clipart/Gear_128x128.png" parent="1" vertex="1"><mxGeometry x="220" y="896" width="120" height="26" as="geometry"/></mxCell><mxCell id="90" value="info()" style="label;fontStyle=0;strokeColor=none;fillColor=none;align=left;verticalAlign=top;overflow=hidden;spacingLeft=28;spacingRight=4;rotatable=0;points=[[0,0.5],[1,0.5]];portConstraint=eastwest;imageWidth=16;imageHeight=16;image=img/clipart/Gear_128x128.png" parent="1" vertex="1"><mxGeometry x="220" y="922" width="120" height="26" as="geometry"/></mxCell><mxCell id="91" value="save()" style="label;fontStyle=0;strokeColor=none;fillColor=none;align=left;verticalAlign=top;overflow=hidden;spacingLeft=28;spacingRight=4;rotatable=0;points=[[0,0.5],[1,0.5]];portConstraint=eastwest;imageWidth=16;imageHeight=16;image=img/clipart/Gear_128x128.png" parent="1" vertex="1"><mxGeometry x="220" y="948" width="120" height="26" as="geometry"/></mxCell><mxCell id="92" value="update()" style="label;fontStyle=0;strokeColor=none;fillColor=none;align=left;verticalAlign=top;overflow=hidden;spacingLeft=28;spacingRight=4;rotatable=0;points=[[0,0.5],[1,0.5]];portConstraint=eastwest;imageWidth=16;imageHeight=16;image=img/clipart/Gear_128x128.png" parent="1" vertex="1"><mxGeometry x="220" y="970" width="120" height="26" as="geometry"/></mxCell><mxCell id="93" value="delete()" style="label;fontStyle=0;strokeColor=none;fillColor=none;align=left;verticalAlign=top;overflow=hidden;spacingLeft=28;spacingRight=4;rotatable=0;points=[[0,0.5],[1,0.5]];portConstraint=eastwest;imageWidth=16;imageHeight=16;image=img/clipart/Gear_128x128.png" parent="1" vertex="1"><mxGeometry x="220" y="996" width="120" height="26" as="geometry"/></mxCell><mxCell id="94" value="" style="line;strokeWidth=1;fillColor=#e51400;align=left;verticalAlign=middle;spacingTop=-1;spacingLeft=3;spacingRight=3;rotatable=0;labelPosition=right;points=[];portConstraint=eastwest;strokeColor=#B20000;fontColor=#ffffff;" parent="1" vertex="1"><mxGeometry x="190" y="862" width="160" height="8" as="geometry"/></mxCell><mxCell id="95" value="" style="line;strokeWidth=1;fillColor=#e51400;align=left;verticalAlign=middle;spacingTop=-1;spacingLeft=3;spacingRight=3;rotatable=0;labelPosition=right;points=[];portConstraint=eastwest;strokeColor=#B20000;fontColor=#ffffff;" parent="1" vertex="1"><mxGeometry x="190" y="867" width="160" height="8" as="geometry"/></mxCell><mxCell id="96" value="" style="ellipse;shape=umlControl;whiteSpace=wrap;html=1;verticalAlign=middle;fillColor=#fff2cc;strokeColor=#d6b656;" parent="1" vertex="1"><mxGeometry x="405" y="790" width="80" height="50" as="geometry"/></mxCell><mxCell id="97" value="&lt;b&gt;&lt;span style=&quot;&quot;&gt;Address&lt;/span&gt;&lt;span style=&quot;&quot;&gt;Controller&lt;br&gt;(from 地址基本信息模块)&lt;br&gt;&lt;/span&gt;&lt;/b&gt;" style="text;html=1;align=center;verticalAlign=middle;resizable=0;points=[];autosize=1;strokeColor=none;fillColor=none;" parent="1" vertex="1"><mxGeometry x="370" y="835" width="160" height="40" as="geometry"/></mxCell><mxCell id="98" value="list()" style="label;fontStyle=0;strokeColor=none;fillColor=none;align=left;verticalAlign=top;overflow=hidden;spacingLeft=28;spacingRight=4;rotatable=0;points=[[0,0.5],[1,0.5]];portConstraint=eastwest;imageWidth=16;imageHeight=16;image=img/clipart/Gear_128x128.png" parent="1" vertex="1"><mxGeometry x="405" y="870" width="120" height="26" as="geometry"/></mxCell><mxCell id="99" value="info()" style="label;fontStyle=0;strokeColor=none;fillColor=none;align=left;verticalAlign=top;overflow=hidden;spacingLeft=28;spacingRight=4;rotatable=0;points=[[0,0.5],[1,0.5]];portConstraint=eastwest;imageWidth=16;imageHeight=16;image=img/clipart/Gear_128x128.png" parent="1" vertex="1"><mxGeometry x="405" y="896" width="120" height="26" as="geometry"/></mxCell><mxCell id="100" value="info()" style="label;fontStyle=0;strokeColor=none;fillColor=none;align=left;verticalAlign=top;overflow=hidden;spacingLeft=28;spacingRight=4;rotatable=0;points=[[0,0.5],[1,0.5]];portConstraint=eastwest;imageWidth=16;imageHeight=16;image=img/clipart/Gear_128x128.png" parent="1" vertex="1"><mxGeometry x="405" y="922" width="120" height="26" as="geometry"/></mxCell><mxCell id="101" value="save()" style="label;fontStyle=0;strokeColor=none;fillColor=none;align=left;verticalAlign=top;overflow=hidden;spacingLeft=28;spacingRight=4;rotatable=0;points=[[0,0.5],[1,0.5]];portConstraint=eastwest;imageWidth=16;imageHeight=16;image=img/clipart/Gear_128x128.png" parent="1" vertex="1"><mxGeometry x="405" y="948" width="120" height="26" as="geometry"/></mxCell><mxCell id="102" value="update()" style="label;fontStyle=0;strokeColor=none;fillColor=none;align=left;verticalAlign=top;overflow=hidden;spacingLeft=28;spacingRight=4;rotatable=0;points=[[0,0.5],[1,0.5]];portConstraint=eastwest;imageWidth=16;imageHeight=16;image=img/clipart/Gear_128x128.png" parent="1" vertex="1"><mxGeometry x="405" y="970" width="120" height="26" as="geometry"/></mxCell><mxCell id="103" value="delete()" style="label;fontStyle=0;strokeColor=none;fillColor=none;align=left;verticalAlign=top;overflow=hidden;spacingLeft=28;spacingRight=4;rotatable=0;points=[[0,0.5],[1,0.5]];portConstraint=eastwest;imageWidth=16;imageHeight=16;image=img/clipart/Gear_128x128.png" parent="1" vertex="1"><mxGeometry x="405" y="996" width="120" height="26" as="geometry"/></mxCell><mxCell id="104" value="" style="line;strokeWidth=1;fillColor=#e51400;align=left;verticalAlign=middle;spacingTop=-1;spacingLeft=3;spacingRight=3;rotatable=0;labelPosition=right;points=[];portConstraint=eastwest;strokeColor=#B20000;fontColor=#ffffff;" parent="1" vertex="1"><mxGeometry x="375" y="862" width="160" height="8" as="geometry"/></mxCell><mxCell id="105" value="" style="line;strokeWidth=1;fillColor=#e51400;align=left;verticalAlign=middle;spacingTop=-1;spacingLeft=3;spacingRight=3;rotatable=0;labelPosition=right;points=[];portConstraint=eastwest;strokeColor=#B20000;fontColor=#ffffff;" parent="1" vertex="1"><mxGeometry x="375" y="867" width="160" height="8" as="geometry"/></mxCell><mxCell id="115" value="" style="ellipse;shape=umlControl;whiteSpace=wrap;html=1;verticalAlign=middle;fillColor=#fff2cc;strokeColor=#d6b656;" parent="1" vertex="1"><mxGeometry x="535.25" y="1070" width="80" height="50" as="geometry"/></mxCell><mxCell id="116" value="&lt;b&gt;EquipmentController&lt;/b&gt;&lt;br&gt;&lt;b&gt;(from 机电设备信息模块)&lt;/b&gt;" style="text;html=1;align=center;verticalAlign=middle;resizable=0;points=[];autosize=1;strokeColor=none;fillColor=none;" parent="1" vertex="1"><mxGeometry x="500.25" y="1115" width="160" height="40" as="geometry"/></mxCell><mxCell id="117" value="list()" style="label;fontStyle=0;strokeColor=none;fillColor=none;align=left;verticalAlign=top;overflow=hidden;spacingLeft=28;spacingRight=4;rotatable=0;points=[[0,0.5],[1,0.5]];portConstraint=eastwest;imageWidth=16;imageHeight=16;image=img/clipart/Gear_128x128.png" parent="1" vertex="1"><mxGeometry x="535.25" y="1150" width="120" height="26" as="geometry"/></mxCell><mxCell id="118" value="info()" style="label;fontStyle=0;strokeColor=none;fillColor=none;align=left;verticalAlign=top;overflow=hidden;spacingLeft=28;spacingRight=4;rotatable=0;points=[[0,0.5],[1,0.5]];portConstraint=eastwest;imageWidth=16;imageHeight=16;image=img/clipart/Gear_128x128.png" parent="1" vertex="1"><mxGeometry x="535.25" y="1176" width="120" height="26" as="geometry"/></mxCell><mxCell id="119" value="info()" style="label;fontStyle=0;strokeColor=none;fillColor=none;align=left;verticalAlign=top;overflow=hidden;spacingLeft=28;spacingRight=4;rotatable=0;points=[[0,0.5],[1,0.5]];portConstraint=eastwest;imageWidth=16;imageHeight=16;image=img/clipart/Gear_128x128.png" parent="1" vertex="1"><mxGeometry x="535.25" y="1202" width="120" height="26" as="geometry"/></mxCell><mxCell id="120" value="save()" style="label;fontStyle=0;strokeColor=none;fillColor=none;align=left;verticalAlign=top;overflow=hidden;spacingLeft=28;spacingRight=4;rotatable=0;points=[[0,0.5],[1,0.5]];portConstraint=eastwest;imageWidth=16;imageHeight=16;image=img/clipart/Gear_128x128.png" parent="1" vertex="1"><mxGeometry x="535.25" y="1228" width="120" height="26" as="geometry"/></mxCell><mxCell id="121" value="update()" style="label;fontStyle=0;strokeColor=none;fillColor=none;align=left;verticalAlign=top;overflow=hidden;spacingLeft=28;spacingRight=4;rotatable=0;points=[[0,0.5],[1,0.5]];portConstraint=eastwest;imageWidth=16;imageHeight=16;image=img/clipart/Gear_128x128.png" parent="1" vertex="1"><mxGeometry x="535.25" y="1250" width="120" height="26" as="geometry"/></mxCell><mxCell id="122" value="delete()" style="label;fontStyle=0;strokeColor=none;fillColor=none;align=left;verticalAlign=top;overflow=hidden;spacingLeft=28;spacingRight=4;rotatable=0;points=[[0,0.5],[1,0.5]];portConstraint=eastwest;imageWidth=16;imageHeight=16;image=img/clipart/Gear_128x128.png" parent="1" vertex="1"><mxGeometry x="535.25" y="1276" width="120" height="26" as="geometry"/></mxCell><mxCell id="123" value="" style="line;strokeWidth=1;fillColor=#e51400;align=left;verticalAlign=middle;spacingTop=-1;spacingLeft=3;spacingRight=3;rotatable=0;labelPosition=right;points=[];portConstraint=eastwest;strokeColor=#B20000;fontColor=#ffffff;" parent="1" vertex="1"><mxGeometry x="505.25" y="1142" width="160" height="8" as="geometry"/></mxCell><mxCell id="124" value="" style="line;strokeWidth=1;fillColor=#e51400;align=left;verticalAlign=middle;spacingTop=-1;spacingLeft=3;spacingRight=3;rotatable=0;labelPosition=right;points=[];portConstraint=eastwest;strokeColor=#B20000;fontColor=#ffffff;" parent="1" vertex="1"><mxGeometry x="505.25" y="1147" width="160" height="8" as="geometry"/></mxCell><mxCell id="125" value="" style="ellipse;shape=umlControl;whiteSpace=wrap;html=1;verticalAlign=middle;fillColor=#fff2cc;strokeColor=#d6b656;" parent="1" vertex="1"><mxGeometry x="720.25" y="1070" width="80" height="50" as="geometry"/></mxCell><mxCell id="126" value="&lt;b&gt;&lt;span style=&quot;&quot;&gt;GoodController&lt;br&gt;(from 货物基本信息模块)&lt;br&gt;&lt;/span&gt;&lt;/b&gt;" style="text;html=1;align=center;verticalAlign=middle;resizable=0;points=[];autosize=1;strokeColor=none;fillColor=none;" parent="1" vertex="1"><mxGeometry x="685.25" y="1115" width="160" height="40" as="geometry"/></mxCell><mxCell id="127" value="list()" style="label;fontStyle=0;strokeColor=none;fillColor=none;align=left;verticalAlign=top;overflow=hidden;spacingLeft=28;spacingRight=4;rotatable=0;points=[[0,0.5],[1,0.5]];portConstraint=eastwest;imageWidth=16;imageHeight=16;image=img/clipart/Gear_128x128.png" parent="1" vertex="1"><mxGeometry x="720.25" y="1150" width="120" height="26" as="geometry"/></mxCell><mxCell id="128" value="info()" style="label;fontStyle=0;strokeColor=none;fillColor=none;align=left;verticalAlign=top;overflow=hidden;spacingLeft=28;spacingRight=4;rotatable=0;points=[[0,0.5],[1,0.5]];portConstraint=eastwest;imageWidth=16;imageHeight=16;image=img/clipart/Gear_128x128.png" parent="1" vertex="1"><mxGeometry x="720.25" y="1176" width="120" height="26" as="geometry"/></mxCell><mxCell id="129" value="info()" style="label;fontStyle=0;strokeColor=none;fillColor=none;align=left;verticalAlign=top;overflow=hidden;spacingLeft=28;spacingRight=4;rotatable=0;points=[[0,0.5],[1,0.5]];portConstraint=eastwest;imageWidth=16;imageHeight=16;image=img/clipart/Gear_128x128.png" parent="1" vertex="1"><mxGeometry x="720.25" y="1202" width="120" height="26" as="geometry"/></mxCell><mxCell id="130" value="save()" style="label;fontStyle=0;strokeColor=none;fillColor=none;align=left;verticalAlign=top;overflow=hidden;spacingLeft=28;spacingRight=4;rotatable=0;points=[[0,0.5],[1,0.5]];portConstraint=eastwest;imageWidth=16;imageHeight=16;image=img/clipart/Gear_128x128.png" parent="1" vertex="1"><mxGeometry x="720.25" y="1228" width="120" height="26" as="geometry"/></mxCell><mxCell id="131" value="update()" style="label;fontStyle=0;strokeColor=none;fillColor=none;align=left;verticalAlign=top;overflow=hidden;spacingLeft=28;spacingRight=4;rotatable=0;points=[[0,0.5],[1,0.5]];portConstraint=eastwest;imageWidth=16;imageHeight=16;image=img/clipart/Gear_128x128.png" parent="1" vertex="1"><mxGeometry x="720.25" y="1250" width="120" height="26" as="geometry"/></mxCell><mxCell id="132" value="delete()" style="label;fontStyle=0;strokeColor=none;fillColor=none;align=left;verticalAlign=top;overflow=hidden;spacingLeft=28;spacingRight=4;rotatable=0;points=[[0,0.5],[1,0.5]];portConstraint=eastwest;imageWidth=16;imageHeight=16;image=img/clipart/Gear_128x128.png" parent="1" vertex="1"><mxGeometry x="720.25" y="1276" width="120" height="26" as="geometry"/></mxCell><mxCell id="133" value="" style="line;strokeWidth=1;fillColor=#e51400;align=left;verticalAlign=middle;spacingTop=-1;spacingLeft=3;spacingRight=3;rotatable=0;labelPosition=right;points=[];portConstraint=eastwest;strokeColor=#B20000;fontColor=#ffffff;" parent="1" vertex="1"><mxGeometry x="690.25" y="1142" width="160" height="8" as="geometry"/></mxCell><mxCell id="134" value="" style="line;strokeWidth=1;fillColor=#e51400;align=left;verticalAlign=middle;spacingTop=-1;spacingLeft=3;spacingRight=3;rotatable=0;labelPosition=right;points=[];portConstraint=eastwest;strokeColor=#B20000;fontColor=#ffffff;" parent="1" vertex="1"><mxGeometry x="690.25" y="1147" width="160" height="8" as="geometry"/></mxCell><mxCell id="144" value="" style="ellipse;shape=umlControl;whiteSpace=wrap;html=1;verticalAlign=middle;fillColor=#fff2cc;strokeColor=#d6b656;" parent="1" vertex="1"><mxGeometry x="786.25" y="788" width="80" height="50" as="geometry"/></mxCell><mxCell id="145" value="&lt;b&gt;&lt;span style=&quot;&quot;&gt;PersonnelController&lt;br&gt;(from 人员信息管理模块)&lt;br&gt;&lt;/span&gt;&lt;/b&gt;" style="text;html=1;align=center;verticalAlign=middle;resizable=0;points=[];autosize=1;strokeColor=none;fillColor=none;" parent="1" vertex="1"><mxGeometry x="751.25" y="835" width="160" height="40" as="geometry"/></mxCell><mxCell id="146" value="list()" style="label;fontStyle=0;strokeColor=none;fillColor=none;align=left;verticalAlign=top;overflow=hidden;spacingLeft=28;spacingRight=4;rotatable=0;points=[[0,0.5],[1,0.5]];portConstraint=eastwest;imageWidth=16;imageHeight=16;image=img/clipart/Gear_128x128.png" parent="1" vertex="1"><mxGeometry x="786.25" y="870" width="120" height="26" as="geometry"/></mxCell><mxCell id="147" value="info()" style="label;fontStyle=0;strokeColor=none;fillColor=none;align=left;verticalAlign=top;overflow=hidden;spacingLeft=28;spacingRight=4;rotatable=0;points=[[0,0.5],[1,0.5]];portConstraint=eastwest;imageWidth=16;imageHeight=16;image=img/clipart/Gear_128x128.png" parent="1" vertex="1"><mxGeometry x="786.25" y="896" width="120" height="26" as="geometry"/></mxCell><mxCell id="148" value="info()" style="label;fontStyle=0;strokeColor=none;fillColor=none;align=left;verticalAlign=top;overflow=hidden;spacingLeft=28;spacingRight=4;rotatable=0;points=[[0,0.5],[1,0.5]];portConstraint=eastwest;imageWidth=16;imageHeight=16;image=img/clipart/Gear_128x128.png" parent="1" vertex="1"><mxGeometry x="786.25" y="922" width="120" height="26" as="geometry"/></mxCell><mxCell id="149" value="save()" style="label;fontStyle=0;strokeColor=none;fillColor=none;align=left;verticalAlign=top;overflow=hidden;spacingLeft=28;spacingRight=4;rotatable=0;points=[[0,0.5],[1,0.5]];portConstraint=eastwest;imageWidth=16;imageHeight=16;image=img/clipart/Gear_128x128.png" parent="1" vertex="1"><mxGeometry x="786.25" y="948" width="120" height="26" as="geometry"/></mxCell><mxCell id="150" value="update()" style="label;fontStyle=0;strokeColor=none;fillColor=none;align=left;verticalAlign=top;overflow=hidden;spacingLeft=28;spacingRight=4;rotatable=0;points=[[0,0.5],[1,0.5]];portConstraint=eastwest;imageWidth=16;imageHeight=16;image=img/clipart/Gear_128x128.png" parent="1" vertex="1"><mxGeometry x="786.25" y="970" width="120" height="26" as="geometry"/></mxCell><mxCell id="151" value="delete()" style="label;fontStyle=0;strokeColor=none;fillColor=none;align=left;verticalAlign=top;overflow=hidden;spacingLeft=28;spacingRight=4;rotatable=0;points=[[0,0.5],[1,0.5]];portConstraint=eastwest;imageWidth=16;imageHeight=16;image=img/clipart/Gear_128x128.png" parent="1" vertex="1"><mxGeometry x="786.25" y="996" width="120" height="26" as="geometry"/></mxCell><mxCell id="152" value="" style="line;strokeWidth=1;fillColor=#e51400;align=left;verticalAlign=middle;spacingTop=-1;spacingLeft=3;spacingRight=3;rotatable=0;labelPosition=right;points=[];portConstraint=eastwest;strokeColor=#B20000;fontColor=#ffffff;" parent="1" vertex="1"><mxGeometry x="756.25" y="862" width="160" height="8" as="geometry"/></mxCell><mxCell id="153" value="" style="line;strokeWidth=1;fillColor=#e51400;align=left;verticalAlign=middle;spacingTop=-1;spacingLeft=3;spacingRight=3;rotatable=0;labelPosition=right;points=[];portConstraint=eastwest;strokeColor=#B20000;fontColor=#ffffff;" parent="1" vertex="1"><mxGeometry x="756.25" y="867" width="160" height="8" as="geometry"/></mxCell><mxCell id="154" value="" style="ellipse;shape=umlControl;whiteSpace=wrap;html=1;verticalAlign=middle;fillColor=#fff2cc;strokeColor=#d6b656;" parent="1" vertex="1"><mxGeometry x="971.25" y="788" width="80" height="50" as="geometry"/></mxCell><mxCell id="155" value="&lt;b&gt;&lt;span style=&quot;&quot;&gt;VehicleController&lt;br&gt;(from 车辆信息管理模块)&lt;br&gt;&lt;/span&gt;&lt;/b&gt;" style="text;html=1;align=center;verticalAlign=middle;resizable=0;points=[];autosize=1;strokeColor=none;fillColor=none;" parent="1" vertex="1"><mxGeometry x="936.25" y="835" width="160" height="40" as="geometry"/></mxCell><mxCell id="156" value="list()" style="label;fontStyle=0;strokeColor=none;fillColor=none;align=left;verticalAlign=top;overflow=hidden;spacingLeft=28;spacingRight=4;rotatable=0;points=[[0,0.5],[1,0.5]];portConstraint=eastwest;imageWidth=16;imageHeight=16;image=img/clipart/Gear_128x128.png" parent="1" vertex="1"><mxGeometry x="971.25" y="870" width="120" height="26" as="geometry"/></mxCell><mxCell id="157" value="info()" style="label;fontStyle=0;strokeColor=none;fillColor=none;align=left;verticalAlign=top;overflow=hidden;spacingLeft=28;spacingRight=4;rotatable=0;points=[[0,0.5],[1,0.5]];portConstraint=eastwest;imageWidth=16;imageHeight=16;image=img/clipart/Gear_128x128.png" parent="1" vertex="1"><mxGeometry x="971.25" y="896" width="120" height="26" as="geometry"/></mxCell><mxCell id="158" value="info()" style="label;fontStyle=0;strokeColor=none;fillColor=none;align=left;verticalAlign=top;overflow=hidden;spacingLeft=28;spacingRight=4;rotatable=0;points=[[0,0.5],[1,0.5]];portConstraint=eastwest;imageWidth=16;imageHeight=16;image=img/clipart/Gear_128x128.png" parent="1" vertex="1"><mxGeometry x="971.25" y="922" width="120" height="26" as="geometry"/></mxCell><mxCell id="159" value="save()" style="label;fontStyle=0;strokeColor=none;fillColor=none;align=left;verticalAlign=top;overflow=hidden;spacingLeft=28;spacingRight=4;rotatable=0;points=[[0,0.5],[1,0.5]];portConstraint=eastwest;imageWidth=16;imageHeight=16;image=img/clipart/Gear_128x128.png" parent="1" vertex="1"><mxGeometry x="971.25" y="948" width="120" height="26" as="geometry"/></mxCell><mxCell id="160" value="update()" style="label;fontStyle=0;strokeColor=none;fillColor=none;align=left;verticalAlign=top;overflow=hidden;spacingLeft=28;spacingRight=4;rotatable=0;points=[[0,0.5],[1,0.5]];portConstraint=eastwest;imageWidth=16;imageHeight=16;image=img/clipart/Gear_128x128.png" parent="1" vertex="1"><mxGeometry x="971.25" y="970" width="120" height="26" as="geometry"/></mxCell><mxCell id="161" value="delete()" style="label;fontStyle=0;strokeColor=none;fillColor=none;align=left;verticalAlign=top;overflow=hidden;spacingLeft=28;spacingRight=4;rotatable=0;points=[[0,0.5],[1,0.5]];portConstraint=eastwest;imageWidth=16;imageHeight=16;image=img/clipart/Gear_128x128.png" parent="1" vertex="1"><mxGeometry x="971.25" y="996" width="120" height="26" as="geometry"/></mxCell><mxCell id="162" value="" style="line;strokeWidth=1;fillColor=#e51400;align=left;verticalAlign=middle;spacingTop=-1;spacingLeft=3;spacingRight=3;rotatable=0;labelPosition=right;points=[];portConstraint=eastwest;strokeColor=#B20000;fontColor=#ffffff;" parent="1" vertex="1"><mxGeometry x="941.25" y="862" width="160" height="8" as="geometry"/></mxCell><mxCell id="163" value="" style="line;strokeWidth=1;fillColor=#e51400;align=left;verticalAlign=middle;spacingTop=-1;spacingLeft=3;spacingRight=3;rotatable=0;labelPosition=right;points=[];portConstraint=eastwest;strokeColor=#B20000;fontColor=#ffffff;" parent="1" vertex="1"><mxGeometry x="941.25" y="867" width="160" height="8" as="geometry"/></mxCell><mxCell id="165" value="" style="ellipse;shape=umlControl;whiteSpace=wrap;html=1;verticalAlign=middle;fillColor=#fff2cc;strokeColor=#d6b656;" parent="1" vertex="1"><mxGeometry x="364" y="1070" width="80" height="50" as="geometry"/></mxCell><mxCell id="166" value="&lt;b&gt;&lt;span style=&quot;&quot;&gt;CompanyController&lt;br&gt;(from 公司信息管理模块)&lt;br&gt;&lt;/span&gt;&lt;/b&gt;" style="text;html=1;align=center;verticalAlign=middle;resizable=0;points=[];autosize=1;strokeColor=none;fillColor=none;" parent="1" vertex="1"><mxGeometry x="329" y="1115" width="160" height="40" as="geometry"/></mxCell><mxCell id="167" value="list()" style="label;fontStyle=0;strokeColor=none;fillColor=none;align=left;verticalAlign=top;overflow=hidden;spacingLeft=28;spacingRight=4;rotatable=0;points=[[0,0.5],[1,0.5]];portConstraint=eastwest;imageWidth=16;imageHeight=16;image=img/clipart/Gear_128x128.png" parent="1" vertex="1"><mxGeometry x="364" y="1150" width="120" height="26" as="geometry"/></mxCell><mxCell id="168" value="info()" style="label;fontStyle=0;strokeColor=none;fillColor=none;align=left;verticalAlign=top;overflow=hidden;spacingLeft=28;spacingRight=4;rotatable=0;points=[[0,0.5],[1,0.5]];portConstraint=eastwest;imageWidth=16;imageHeight=16;image=img/clipart/Gear_128x128.png" parent="1" vertex="1"><mxGeometry x="364" y="1176" width="120" height="26" as="geometry"/></mxCell><mxCell id="169" value="info()" style="label;fontStyle=0;strokeColor=none;fillColor=none;align=left;verticalAlign=top;overflow=hidden;spacingLeft=28;spacingRight=4;rotatable=0;points=[[0,0.5],[1,0.5]];portConstraint=eastwest;imageWidth=16;imageHeight=16;image=img/clipart/Gear_128x128.png" parent="1" vertex="1"><mxGeometry x="364" y="1202" width="120" height="26" as="geometry"/></mxCell><mxCell id="170" value="save()" style="label;fontStyle=0;strokeColor=none;fillColor=none;align=left;verticalAlign=top;overflow=hidden;spacingLeft=28;spacingRight=4;rotatable=0;points=[[0,0.5],[1,0.5]];portConstraint=eastwest;imageWidth=16;imageHeight=16;image=img/clipart/Gear_128x128.png" parent="1" vertex="1"><mxGeometry x="364" y="1228" width="120" height="26" as="geometry"/></mxCell><mxCell id="171" value="update()" style="label;fontStyle=0;strokeColor=none;fillColor=none;align=left;verticalAlign=top;overflow=hidden;spacingLeft=28;spacingRight=4;rotatable=0;points=[[0,0.5],[1,0.5]];portConstraint=eastwest;imageWidth=16;imageHeight=16;image=img/clipart/Gear_128x128.png" parent="1" vertex="1"><mxGeometry x="364" y="1250" width="120" height="26" as="geometry"/></mxCell><mxCell id="172" value="delete()" style="label;fontStyle=0;strokeColor=none;fillColor=none;align=left;verticalAlign=top;overflow=hidden;spacingLeft=28;spacingRight=4;rotatable=0;points=[[0,0.5],[1,0.5]];portConstraint=eastwest;imageWidth=16;imageHeight=16;image=img/clipart/Gear_128x128.png" parent="1" vertex="1"><mxGeometry x="364" y="1276" width="120" height="26" as="geometry"/></mxCell><mxCell id="173" value="" style="line;strokeWidth=1;fillColor=#e51400;align=left;verticalAlign=middle;spacingTop=-1;spacingLeft=3;spacingRight=3;rotatable=0;labelPosition=right;points=[];portConstraint=eastwest;strokeColor=#B20000;fontColor=#ffffff;" parent="1" vertex="1"><mxGeometry x="334" y="1142" width="160" height="8" as="geometry"/></mxCell><mxCell id="174" value="" style="line;strokeWidth=1;fillColor=#e51400;align=left;verticalAlign=middle;spacingTop=-1;spacingLeft=3;spacingRight=3;rotatable=0;labelPosition=right;points=[];portConstraint=eastwest;strokeColor=#B20000;fontColor=#ffffff;" parent="1" vertex="1"><mxGeometry x="334" y="1147" width="160" height="8" as="geometry"/></mxCell><mxCell id="175" value="" style="ellipse;shape=umlControl;whiteSpace=wrap;html=1;verticalAlign=middle;fillColor=#fff2cc;strokeColor=#d6b656;" parent="1" vertex="1"><mxGeometry x="615" y="788" width="80" height="50" as="geometry"/></mxCell><mxCell id="176" value="&lt;b&gt;&lt;span style=&quot;&quot;&gt;MaterialController&lt;br&gt;(from 物资信息管理模块)&lt;br&gt;&lt;/span&gt;&lt;/b&gt;" style="text;html=1;align=center;verticalAlign=middle;resizable=0;points=[];autosize=1;strokeColor=none;fillColor=none;" parent="1" vertex="1"><mxGeometry x="580" y="835" width="160" height="40" as="geometry"/></mxCell><mxCell id="177" value="list()" style="label;fontStyle=0;strokeColor=none;fillColor=none;align=left;verticalAlign=top;overflow=hidden;spacingLeft=28;spacingRight=4;rotatable=0;points=[[0,0.5],[1,0.5]];portConstraint=eastwest;imageWidth=16;imageHeight=16;image=img/clipart/Gear_128x128.png" parent="1" vertex="1"><mxGeometry x="615" y="870" width="120" height="26" as="geometry"/></mxCell><mxCell id="178" value="info()" style="label;fontStyle=0;strokeColor=none;fillColor=none;align=left;verticalAlign=top;overflow=hidden;spacingLeft=28;spacingRight=4;rotatable=0;points=[[0,0.5],[1,0.5]];portConstraint=eastwest;imageWidth=16;imageHeight=16;image=img/clipart/Gear_128x128.png" parent="1" vertex="1"><mxGeometry x="615" y="896" width="120" height="26" as="geometry"/></mxCell><mxCell id="179" value="info()" style="label;fontStyle=0;strokeColor=none;fillColor=none;align=left;verticalAlign=top;overflow=hidden;spacingLeft=28;spacingRight=4;rotatable=0;points=[[0,0.5],[1,0.5]];portConstraint=eastwest;imageWidth=16;imageHeight=16;image=img/clipart/Gear_128x128.png" parent="1" vertex="1"><mxGeometry x="615" y="922" width="120" height="26" as="geometry"/></mxCell><mxCell id="180" value="save()" style="label;fontStyle=0;strokeColor=none;fillColor=none;align=left;verticalAlign=top;overflow=hidden;spacingLeft=28;spacingRight=4;rotatable=0;points=[[0,0.5],[1,0.5]];portConstraint=eastwest;imageWidth=16;imageHeight=16;image=img/clipart/Gear_128x128.png" parent="1" vertex="1"><mxGeometry x="615" y="948" width="120" height="26" as="geometry"/></mxCell><mxCell id="181" value="update()" style="label;fontStyle=0;strokeColor=none;fillColor=none;align=left;verticalAlign=top;overflow=hidden;spacingLeft=28;spacingRight=4;rotatable=0;points=[[0,0.5],[1,0.5]];portConstraint=eastwest;imageWidth=16;imageHeight=16;image=img/clipart/Gear_128x128.png" parent="1" vertex="1"><mxGeometry x="615" y="970" width="120" height="26" as="geometry"/></mxCell><mxCell id="182" value="delete()" style="label;fontStyle=0;strokeColor=none;fillColor=none;align=left;verticalAlign=top;overflow=hidden;spacingLeft=28;spacingRight=4;rotatable=0;points=[[0,0.5],[1,0.5]];portConstraint=eastwest;imageWidth=16;imageHeight=16;image=img/clipart/Gear_128x128.png" parent="1" vertex="1"><mxGeometry x="615" y="996" width="120" height="26" as="geometry"/></mxCell><mxCell id="183" value="" style="line;strokeWidth=1;fillColor=#e51400;align=left;verticalAlign=middle;spacingTop=-1;spacingLeft=3;spacingRight=3;rotatable=0;labelPosition=right;points=[];portConstraint=eastwest;strokeColor=#B20000;fontColor=#ffffff;" parent="1" vertex="1"><mxGeometry x="585" y="862" width="160" height="8" as="geometry"/></mxCell><mxCell id="184" value="" style="line;strokeWidth=1;fillColor=#e51400;align=left;verticalAlign=middle;spacingTop=-1;spacingLeft=3;spacingRight=3;rotatable=0;labelPosition=right;points=[];portConstraint=eastwest;strokeColor=#B20000;fontColor=#ffffff;" parent="1" vertex="1"><mxGeometry x="585" y="867" width="160" height="8" as="geometry"/></mxCell><mxCell id="185" value="" style="ellipse;shape=umlControl;whiteSpace=wrap;html=1;verticalAlign=middle;fillColor=#fff2cc;strokeColor=#d6b656;fontStyle=1;fontColor=#000000;" parent="1" vertex="1"><mxGeometry x="255" y="1443" width="80" height="50" as="geometry"/></mxCell><mxCell id="186" value="&lt;span&gt;Cargo&lt;br&gt;ManagementController&lt;/span&gt;&lt;br&gt;&lt;span&gt;(from &lt;/span&gt;&lt;span style=&quot;background-color: rgb(255, 255, 255);&quot;&gt;&lt;font style=&quot;font-size: 12px;&quot;&gt;&lt;span style=&quot;&quot;&gt;货物管理&lt;/span&gt;&lt;/font&gt;&lt;/span&gt;&lt;span style=&quot;background-color: initial;&quot;&gt;模块)&lt;/span&gt;" style="text;html=1;align=center;verticalAlign=middle;resizable=0;points=[];autosize=1;strokeColor=none;fillColor=none;fontStyle=1;fontColor=#000000;" parent="1" vertex="1"><mxGeometry x="225" y="1485" width="150" height="60" as="geometry"/></mxCell><mxCell id="195" value="" style="ellipse;shape=umlControl;whiteSpace=wrap;html=1;verticalAlign=middle;fillColor=#fff2cc;strokeColor=#d6b656;fontStyle=1;fontColor=#000000;" parent="1" vertex="1"><mxGeometry x="440" y="1443" width="80" height="50" as="geometry"/></mxCell><mxCell id="196" value="&lt;span&gt;Commodity&lt;br&gt;ManagementController&lt;/span&gt;&lt;br&gt;&lt;span&gt;(from&lt;/span&gt;&lt;span style=&quot;background-color: rgb(255, 255, 255); font-family: 宋体, monospace;&quot;&gt;&lt;span style=&quot;&quot;&gt;物资管理&lt;/span&gt;&lt;/span&gt;&lt;span style=&quot;background-color: initial;&quot;&gt;模块)&lt;/span&gt;" style="text;html=1;align=center;verticalAlign=middle;resizable=0;points=[];autosize=1;strokeColor=none;fillColor=none;fontStyle=1;fontColor=#000000;" parent="1" vertex="1"><mxGeometry x="410" y="1485" width="150" height="60" as="geometry"/></mxCell><mxCell id="205" value="" style="ellipse;shape=umlControl;whiteSpace=wrap;html=1;verticalAlign=middle;fillColor=#fff2cc;strokeColor=#d6b656;fontStyle=1;fontColor=#000000;" parent="1" vertex="1"><mxGeometry x="83.75" y="1443" width="80" height="50" as="geometry"/></mxCell><mxCell id="206" value="&lt;span&gt;BuildingLeasingController&lt;/span&gt;&lt;br&gt;&lt;span&gt;(from&amp;nbsp;&lt;/span&gt;&lt;span style=&quot;background-color: rgb(255, 255, 255);&quot;&gt;&lt;font style=&quot;font-size: 12px;&quot;&gt;建筑租赁&lt;/font&gt;&lt;/span&gt;&lt;span style=&quot;background-color: initial;&quot;&gt;模块)&lt;/span&gt;" style="text;html=1;align=center;verticalAlign=middle;resizable=0;points=[];autosize=1;strokeColor=none;fillColor=none;fontStyle=1;fontColor=#000000;" parent="1" vertex="1"><mxGeometry x="43.75" y="1495" width="170" height="40" as="geometry"/></mxCell><mxCell id="215" value="" style="ellipse;shape=umlControl;whiteSpace=wrap;html=1;verticalAlign=middle;fillColor=#fff2cc;strokeColor=#d6b656;fontStyle=1;fontColor=#000000;" parent="1" vertex="1"><mxGeometry x="253.13" y="1580" width="80" height="50" as="geometry"/></mxCell><mxCell id="216" value="&lt;span&gt;Personnel&lt;br&gt;ManagementController&lt;/span&gt;&lt;br&gt;&lt;span&gt;(from&amp;nbsp;&lt;/span&gt;&lt;span style=&quot;background-color: rgb(255, 255, 255);&quot;&gt;&lt;font style=&quot;font-size: 12px;&quot;&gt;人员管理&lt;/font&gt;&lt;/span&gt;&lt;span style=&quot;background-color: initial;&quot;&gt;模块)&lt;/span&gt;" style="text;html=1;align=center;verticalAlign=middle;resizable=0;points=[];autosize=1;strokeColor=none;fillColor=none;fontStyle=1;fontColor=#000000;" parent="1" vertex="1"><mxGeometry x="223.13" y="1622" width="150" height="60" as="geometry"/></mxCell><mxCell id="217" value="" style="ellipse;shape=umlControl;whiteSpace=wrap;html=1;verticalAlign=middle;fillColor=#fff2cc;strokeColor=#d6b656;fontStyle=1;fontColor=#000000;" parent="1" vertex="1"><mxGeometry x="438.13" y="1580" width="80" height="50" as="geometry"/></mxCell><mxCell id="218" value="" style="ellipse;shape=umlControl;whiteSpace=wrap;html=1;verticalAlign=middle;fillColor=#fff2cc;strokeColor=#d6b656;fontStyle=1;fontColor=#000000;" parent="1" vertex="1"><mxGeometry x="81.88" y="1580" width="80" height="50" as="geometry"/></mxCell><mxCell id="219" value="&lt;span&gt;OfficeSuppliesPurchase&lt;br&gt;Controller&lt;/span&gt;&lt;br&gt;&lt;span&gt;(from&amp;nbsp;&lt;/span&gt;&lt;span style=&quot;background-color: rgb(255, 255, 255);&quot;&gt;&lt;font style=&quot;font-size: 12px;&quot;&gt;办公耗材采购&lt;/font&gt;&lt;/span&gt;&lt;span style=&quot;background-color: initial;&quot;&gt;管理模块)&lt;/span&gt;" style="text;html=1;align=center;verticalAlign=middle;resizable=0;points=[];autosize=1;strokeColor=none;fillColor=none;fontStyle=1;fontColor=#000000;" parent="1" vertex="1"><mxGeometry x="36.88" y="1622" width="180" height="60" as="geometry"/></mxCell><mxCell id="220" value="&lt;span&gt;Vehicle&lt;br&gt;ManagementController&lt;/span&gt;&lt;br&gt;&lt;span&gt;(from&amp;nbsp;&lt;/span&gt;&lt;span style=&quot;background-color: rgb(255, 255, 255);&quot;&gt;&lt;font style=&quot;font-size: 12px;&quot;&gt;汽车管理&lt;/font&gt;&lt;/span&gt;&lt;span style=&quot;background-color: initial;&quot;&gt;模块)&lt;/span&gt;" style="text;html=1;align=center;verticalAlign=middle;resizable=0;points=[];autosize=1;strokeColor=none;fillColor=none;fontStyle=1;fontColor=#000000;" parent="1" vertex="1"><mxGeometry x="410" y="1630" width="150" height="60" as="geometry"/></mxCell><mxCell id="221" value="" style="ellipse;shape=umlControl;whiteSpace=wrap;html=1;verticalAlign=middle;fillColor=#fff2cc;strokeColor=#d6b656;fontStyle=1;fontColor=#000000;" parent="1" vertex="1"><mxGeometry x="251.56" y="1720" width="80" height="50" as="geometry"/></mxCell><mxCell id="222" value="RailwayTaskController&lt;br&gt;&lt;span&gt;(from&amp;nbsp;&lt;/span&gt;&lt;span style=&quot;background-color: rgb(255, 255, 255);&quot;&gt;&lt;font style=&quot;font-size: 12px;&quot;&gt;铁路运输待办&lt;/font&gt;&lt;/span&gt;&lt;span style=&quot;background-color: initial;&quot;&gt;模块)&lt;/span&gt;" style="text;html=1;align=center;verticalAlign=middle;resizable=0;points=[];autosize=1;strokeColor=none;fillColor=none;fontStyle=1;fontColor=#000000;" parent="1" vertex="1"><mxGeometry x="216.56" y="1772" width="160" height="40" as="geometry"/></mxCell><mxCell id="223" value="" style="ellipse;shape=umlControl;whiteSpace=wrap;html=1;verticalAlign=middle;fillColor=#fff2cc;strokeColor=#d6b656;fontStyle=1;fontColor=#000000;" parent="1" vertex="1"><mxGeometry x="436.56" y="1720" width="80" height="50" as="geometry"/></mxCell><mxCell id="224" value="TransportRecordController&lt;br&gt;&lt;span&gt;(from&amp;nbsp;&lt;/span&gt;&lt;span style=&quot;background-color: rgb(255, 255, 255);&quot;&gt;&lt;font style=&quot;font-size: 12px;&quot;&gt;单车运营记录&lt;/font&gt;&lt;/span&gt;&lt;span style=&quot;background-color: initial;&quot;&gt;模块)&lt;/span&gt;" style="text;html=1;align=center;verticalAlign=middle;resizable=0;points=[];autosize=1;strokeColor=none;fillColor=none;fontStyle=1;fontColor=#000000;" parent="1" vertex="1"><mxGeometry x="391.56" y="1772" width="180" height="40" as="geometry"/></mxCell><mxCell id="225" value="" style="ellipse;shape=umlControl;whiteSpace=wrap;html=1;verticalAlign=middle;fillColor=#fff2cc;strokeColor=#d6b656;fontStyle=1;fontColor=#000000;" parent="1" vertex="1"><mxGeometry x="80.31" y="1720" width="80" height="50" as="geometry"/></mxCell><mxCell id="226" value="CarrierRecordController&lt;br&gt;&lt;span&gt;(from&amp;nbsp;&lt;/span&gt;&lt;span style=&quot;background-color: rgb(255, 255, 255);&quot;&gt;&lt;font style=&quot;font-size: 12px;&quot;&gt;承运商业务记录&lt;/font&gt;&lt;/span&gt;&lt;span style=&quot;background-color: initial;&quot;&gt;模块)&lt;/span&gt;" style="text;html=1;align=center;verticalAlign=middle;resizable=0;points=[];autosize=1;strokeColor=none;fillColor=none;fontStyle=1;fontColor=#000000;" parent="1" vertex="1"><mxGeometry x="40.31" y="1772" width="170" height="40" as="geometry"/></mxCell><mxCell id="230" value="" style="ellipse;shape=umlControl;whiteSpace=wrap;html=1;verticalAlign=middle;fillColor=#fff2cc;strokeColor=#d6b656;fontStyle=1;fontColor=#000000;" parent="1" vertex="1"><mxGeometry x="78.44" y="1857" width="80" height="50" as="geometry"/></mxCell><mxCell id="231" value="TransportTaskController&lt;br&gt;&lt;span&gt;(from&amp;nbsp;&lt;/span&gt;&lt;span style=&quot;background-color: rgb(255, 255, 255);&quot;&gt;&lt;font style=&quot;font-size: 12px;&quot;&gt;运输任务管理&lt;/font&gt;&lt;/span&gt;&lt;span style=&quot;background-color: initial;&quot;&gt;模块)&lt;/span&gt;" style="text;html=1;align=center;verticalAlign=middle;resizable=0;points=[];autosize=1;strokeColor=none;fillColor=none;fontStyle=1;fontColor=#000000;" parent="1" vertex="1"><mxGeometry x="43.440000000000005" y="1909" width="160" height="40" as="geometry"/></mxCell><mxCell id="RUVuw_bvnlBbFeJsy6Rq-264" value="" style="shape=image;imageAspect=0;aspect=fixed;verticalLabelPosition=bottom;verticalAlign=top;strokeWidth=2;fillColor=#CCFFFF;gradientColor=#87FFEF;image=data:image/png,iVBORw0KGgoAAAANSUhEUgAAAJgAAABRCAYAAAAuJW9dAAAAAXNSR0IArs4c6QAAAARnQU1BAACxjwv8YQUAAAAJcEhZcwAAEk4AABJOAV4u5coAAAOCSURBVHhe7dxBbtswEIVhuei+h5HP1JwpPZN1mO4LpJ5YA1O0JJPUkDPivG9jrwo0+fPIBIkuX3cDQCVdBPbncp3f5fv9dZvfQQ2nC+xITCkQnKzTBLYX1nggimnj30VoMswHFod1JKYUa8EhtnJmA2sdVgyhyTAXmHZYa8LYEFkeU4GFceWENf77O7/bNv38Nb8rh9DymQmM40oNKyUqJhEXQ2R51APLXa21sCQDSsWhIbJ9qoHlxBWHpRFVDGv2nlpgqUeixbBCiGyfSmAlcVkLK4Yjc92P+bWZ3LgoLOtxwbamgZXEdRb8fwrvlaCwYHsorDPGxRDZq2aBvVuvM9239iCypSaBpcaF+1Z/1I/IMx+JW7BiT9UD21uvHuNiiOyhamDvjkbon9oR2fN6MaxYxcC8Ho1bpmma3/mifsnvHX+BTdeP71dvqgSG9VrnccWwYA2EK+YtMvHAsF4QwoI14nXFEBhUJRoYjsd0XlYMCwZVITBFHlasSWA4Hh/Ci74XWDBlva+YWGB7F3zwCwsGVSEwqErsD2/xM7A018tl+BzG4WPAz8FAGMXlTbPAvK+Xx7hIk8AQ1zMuOh49wRFZmdflYk0u+V7Fcd3uH2p+Cs94+/x+ZePY57IhsErW4iJbgfVK7Ijk52KFD2Tzaisuj3AHE4a4lhCYoHdxeTseCQITguVaJ/qMVq8X/dS49has1+8iRRfM40U/jIvCwnIt4Yg8II4LXiGwQrlxebzgE/HAPByT0svV6/2LYMEy4VjMg8AylMbl9XgkVQLr8ZjEcpXBgiXguCis3Lg8rxepFlgvKxbGVUPPF3yCBdtxNC7v60WqBnbmFau9XKT39SLVF+yMkUnEhfV6wBEZQVyymgR2lhWjuCismsci83A8kmYLZj0yjusorNcSjsi71nF5WS/SNDCLK4a46mq+YJYik44LXqkckfxVrvmJqREX1uuV6O/k56BHR4bPKm35e/xaF3qPgale8sNPTMs1Q1ztqC0YCR+Ay2tm/S+Sco5E5jUuohoYWYuMWAwNceVTD4xsRUYshFYSFvEeFzERGImfF68d2tqdEHHlMxMYiSMjrUM7GhZBXE+mAiNrkZE4tFBpdGsxsdyoGOJaMhcYKwlNQmlYBHG9MhsY2YosVhrdkZhCCGub6cBIamRaENc+84Exa6EhrDSnCYxph4awcgzDf+q3W3MzmblgAAAAAElFTkSuQmCC;" parent="1" vertex="1"><mxGeometry x="93.33" y="2301" width="131.36" height="70" as="geometry"/></mxCell><mxCell id="RUVuw_bvnlBbFeJsy6Rq-265" value="&lt;pre style=&quot;background-color: rgb(255, 255, 255); color: rgb(8, 8, 8); line-height: 40%;&quot;&gt;&lt;span style=&quot;color: rgb(0, 0, 0);&quot;&gt;&lt;font face=&quot;Helvetica&quot; style=&quot;font-size: 12px;&quot;&gt;&lt;b&gt;AddressService&lt;/b&gt;&lt;/font&gt;&lt;/span&gt;&lt;/pre&gt;&lt;pre style=&quot;background-color: rgb(255, 255, 255); color: rgb(8, 8, 8); line-height: 40%;&quot;&gt;&lt;font face=&quot;Helvetica&quot; style=&quot;font-size: 12px;&quot;&gt;&lt;b&gt;&lt;span style=&quot;color: rgb(0, 0, 0);&quot;&gt;(from &lt;/span&gt;地址基本信息模块)&lt;/b&gt;&lt;/font&gt;&lt;/pre&gt;" style="text;html=1;align=center;verticalAlign=middle;resizable=0;points=[];autosize=1;strokeColor=none;fillColor=none;" parent="1" vertex="1"><mxGeometry x="70.56" y="2357" width="152" height="58" as="geometry"/></mxCell><mxCell id="RUVuw_bvnlBbFeJsy6Rq-266" value="" style="shape=image;imageAspect=0;aspect=fixed;verticalLabelPosition=bottom;verticalAlign=top;strokeWidth=2;fillColor=#CCFFFF;gradientColor=#87FFEF;image=data:image/png,iVBORw0KGgoAAAANSUhEUgAAAJgAAABRCAYAAAAuJW9dAAAAAXNSR0IArs4c6QAAAARnQU1BAACxjwv8YQUAAAAJcEhZcwAAEk4AABJOAV4u5coAAAOCSURBVHhe7dxBbtswEIVhuei+h5HP1JwpPZN1mO4LpJ5YA1O0JJPUkDPivG9jrwo0+fPIBIkuX3cDQCVdBPbncp3f5fv9dZvfQQ2nC+xITCkQnKzTBLYX1nggimnj30VoMswHFod1JKYUa8EhtnJmA2sdVgyhyTAXmHZYa8LYEFkeU4GFceWENf77O7/bNv38Nb8rh9DymQmM40oNKyUqJhEXQ2R51APLXa21sCQDSsWhIbJ9qoHlxBWHpRFVDGv2nlpgqUeixbBCiGyfSmAlcVkLK4Yjc92P+bWZ3LgoLOtxwbamgZXEdRb8fwrvlaCwYHsorDPGxRDZq2aBvVuvM9239iCypSaBpcaF+1Z/1I/IMx+JW7BiT9UD21uvHuNiiOyhamDvjkbon9oR2fN6MaxYxcC8Ho1bpmma3/mifsnvHX+BTdeP71dvqgSG9VrnccWwYA2EK+YtMvHAsF4QwoI14nXFEBhUJRoYjsd0XlYMCwZVITBFHlasSWA4Hh/Ci74XWDBlva+YWGB7F3zwCwsGVSEwqErsD2/xM7A018tl+BzG4WPAz8FAGMXlTbPAvK+Xx7hIk8AQ1zMuOh49wRFZmdflYk0u+V7Fcd3uH2p+Cs94+/x+ZePY57IhsErW4iJbgfVK7Ijk52KFD2Tzaisuj3AHE4a4lhCYoHdxeTseCQITguVaJ/qMVq8X/dS49has1+8iRRfM40U/jIvCwnIt4Yg8II4LXiGwQrlxebzgE/HAPByT0svV6/2LYMEy4VjMg8AylMbl9XgkVQLr8ZjEcpXBgiXguCis3Lg8rxepFlgvKxbGVUPPF3yCBdtxNC7v60WqBnbmFau9XKT39SLVF+yMkUnEhfV6wBEZQVyymgR2lhWjuCismsci83A8kmYLZj0yjusorNcSjsi71nF5WS/SNDCLK4a46mq+YJYik44LXqkckfxVrvmJqREX1uuV6O/k56BHR4bPKm35e/xaF3qPgale8sNPTMs1Q1ztqC0YCR+Ay2tm/S+Sco5E5jUuohoYWYuMWAwNceVTD4xsRUYshFYSFvEeFzERGImfF68d2tqdEHHlMxMYiSMjrUM7GhZBXE+mAiNrkZE4tFBpdGsxsdyoGOJaMhcYKwlNQmlYBHG9MhsY2YosVhrdkZhCCGub6cBIamRaENc+84Exa6EhrDSnCYxph4awcgzDf+q3W3MzmblgAAAAAElFTkSuQmCC;" parent="1" vertex="1"><mxGeometry x="264.89" y="2309" width="131.36" height="70" as="geometry"/></mxCell><mxCell id="RUVuw_bvnlBbFeJsy6Rq-267" value="&lt;pre style=&quot;background-color: rgb(255, 255, 255); line-height: 40%;&quot;&gt;&lt;font face=&quot;Helvetica&quot;&gt;&lt;b&gt;BuildingService&lt;/b&gt;&lt;/font&gt;&lt;font color=&quot;#080808&quot;&gt;&lt;br&gt;&lt;/font&gt;&lt;/pre&gt;&lt;pre style=&quot;background-color: rgb(255, 255, 255); color: rgb(8, 8, 8); line-height: 40%;&quot;&gt;&lt;font face=&quot;Helvetica&quot; style=&quot;font-size: 12px;&quot;&gt;&lt;b&gt;&lt;span style=&quot;color: rgb(0, 0, 0);&quot;&gt;(from &lt;/span&gt;&lt;/b&gt;&lt;/font&gt;&lt;font face=&quot;Helvetica&quot;&gt;&lt;b&gt;建筑构物信息模块)&lt;/b&gt;&lt;/font&gt;&lt;/pre&gt;" style="text;html=1;align=center;verticalAlign=middle;resizable=0;points=[];autosize=1;strokeColor=none;fillColor=none;" parent="1" vertex="1"><mxGeometry x="246.25" y="2369" width="152" height="58" as="geometry"/></mxCell><mxCell id="RUVuw_bvnlBbFeJsy6Rq-268" value="" style="shape=image;imageAspect=0;aspect=fixed;verticalLabelPosition=bottom;verticalAlign=top;strokeWidth=2;fillColor=#CCFFFF;gradientColor=#87FFEF;image=data:image/png,iVBORw0KGgoAAAANSUhEUgAAAJgAAABRCAYAAAAuJW9dAAAAAXNSR0IArs4c6QAAAARnQU1BAACxjwv8YQUAAAAJcEhZcwAAEk4AABJOAV4u5coAAAOCSURBVHhe7dxBbtswEIVhuei+h5HP1JwpPZN1mO4LpJ5YA1O0JJPUkDPivG9jrwo0+fPIBIkuX3cDQCVdBPbncp3f5fv9dZvfQQ2nC+xITCkQnKzTBLYX1nggimnj30VoMswHFod1JKYUa8EhtnJmA2sdVgyhyTAXmHZYa8LYEFkeU4GFceWENf77O7/bNv38Nb8rh9DymQmM40oNKyUqJhEXQ2R51APLXa21sCQDSsWhIbJ9qoHlxBWHpRFVDGv2nlpgqUeixbBCiGyfSmAlcVkLK4Yjc92P+bWZ3LgoLOtxwbamgZXEdRb8fwrvlaCwYHsorDPGxRDZq2aBvVuvM9239iCypSaBpcaF+1Z/1I/IMx+JW7BiT9UD21uvHuNiiOyhamDvjkbon9oR2fN6MaxYxcC8Ho1bpmma3/mifsnvHX+BTdeP71dvqgSG9VrnccWwYA2EK+YtMvHAsF4QwoI14nXFEBhUJRoYjsd0XlYMCwZVITBFHlasSWA4Hh/Ci74XWDBlva+YWGB7F3zwCwsGVSEwqErsD2/xM7A018tl+BzG4WPAz8FAGMXlTbPAvK+Xx7hIk8AQ1zMuOh49wRFZmdflYk0u+V7Fcd3uH2p+Cs94+/x+ZePY57IhsErW4iJbgfVK7Ijk52KFD2Tzaisuj3AHE4a4lhCYoHdxeTseCQITguVaJ/qMVq8X/dS49has1+8iRRfM40U/jIvCwnIt4Yg8II4LXiGwQrlxebzgE/HAPByT0svV6/2LYMEy4VjMg8AylMbl9XgkVQLr8ZjEcpXBgiXguCis3Lg8rxepFlgvKxbGVUPPF3yCBdtxNC7v60WqBnbmFau9XKT39SLVF+yMkUnEhfV6wBEZQVyymgR2lhWjuCismsci83A8kmYLZj0yjusorNcSjsi71nF5WS/SNDCLK4a46mq+YJYik44LXqkckfxVrvmJqREX1uuV6O/k56BHR4bPKm35e/xaF3qPgale8sNPTMs1Q1ztqC0YCR+Ay2tm/S+Sco5E5jUuohoYWYuMWAwNceVTD4xsRUYshFYSFvEeFzERGImfF68d2tqdEHHlMxMYiSMjrUM7GhZBXE+mAiNrkZE4tFBpdGsxsdyoGOJaMhcYKwlNQmlYBHG9MhsY2YosVhrdkZhCCGub6cBIamRaENc+84Exa6EhrDSnCYxph4awcgzDf+q3W3MzmblgAAAAAElFTkSuQmCC;" parent="1" vertex="1"><mxGeometry x="45.019999999999996" y="2424" width="131.36" height="70" as="geometry"/></mxCell><mxCell id="RUVuw_bvnlBbFeJsy6Rq-269" value="&lt;pre style=&quot;background-color: rgb(255, 255, 255); line-height: 40%;&quot;&gt;&lt;font face=&quot;Helvetica&quot;&gt;&lt;b&gt;EquipmentService&lt;/b&gt;&lt;/font&gt;&lt;font color=&quot;#080808&quot;&gt;&lt;br&gt;&lt;/font&gt;&lt;/pre&gt;&lt;pre style=&quot;background-color: rgb(255, 255, 255); color: rgb(8, 8, 8); line-height: 40%;&quot;&gt;&lt;font face=&quot;Helvetica&quot; style=&quot;font-size: 12px;&quot;&gt;&lt;b&gt;&lt;span style=&quot;color: rgb(0, 0, 0);&quot;&gt;(from &lt;/span&gt;&lt;/b&gt;&lt;/font&gt;&lt;b&gt;&lt;font face=&quot;Helvetica&quot;&gt;机电设备信息模块)&lt;/font&gt;&lt;/b&gt;&lt;/pre&gt;" style="text;html=1;align=center;verticalAlign=middle;resizable=0;points=[];autosize=1;strokeColor=none;fillColor=none;" parent="1" vertex="1"><mxGeometry x="24" y="2494" width="152" height="58" as="geometry"/></mxCell><mxCell id="RUVuw_bvnlBbFeJsy6Rq-270" value="" style="shape=image;imageAspect=0;aspect=fixed;verticalLabelPosition=bottom;verticalAlign=top;strokeWidth=2;fillColor=#CCFFFF;gradientColor=#87FFEF;image=data:image/png,iVBORw0KGgoAAAANSUhEUgAAAJgAAABRCAYAAAAuJW9dAAAAAXNSR0IArs4c6QAAAARnQU1BAACxjwv8YQUAAAAJcEhZcwAAEk4AABJOAV4u5coAAAOCSURBVHhe7dxBbtswEIVhuei+h5HP1JwpPZN1mO4LpJ5YA1O0JJPUkDPivG9jrwo0+fPIBIkuX3cDQCVdBPbncp3f5fv9dZvfQQ2nC+xITCkQnKzTBLYX1nggimnj30VoMswHFod1JKYUa8EhtnJmA2sdVgyhyTAXmHZYa8LYEFkeU4GFceWENf77O7/bNv38Nb8rh9DymQmM40oNKyUqJhEXQ2R51APLXa21sCQDSsWhIbJ9qoHlxBWHpRFVDGv2nlpgqUeixbBCiGyfSmAlcVkLK4Yjc92P+bWZ3LgoLOtxwbamgZXEdRb8fwrvlaCwYHsorDPGxRDZq2aBvVuvM9239iCypSaBpcaF+1Z/1I/IMx+JW7BiT9UD21uvHuNiiOyhamDvjkbon9oR2fN6MaxYxcC8Ho1bpmma3/mifsnvHX+BTdeP71dvqgSG9VrnccWwYA2EK+YtMvHAsF4QwoI14nXFEBhUJRoYjsd0XlYMCwZVITBFHlasSWA4Hh/Ci74XWDBlva+YWGB7F3zwCwsGVSEwqErsD2/xM7A018tl+BzG4WPAz8FAGMXlTbPAvK+Xx7hIk8AQ1zMuOh49wRFZmdflYk0u+V7Fcd3uH2p+Cs94+/x+ZePY57IhsErW4iJbgfVK7Ijk52KFD2Tzaisuj3AHE4a4lhCYoHdxeTseCQITguVaJ/qMVq8X/dS49has1+8iRRfM40U/jIvCwnIt4Yg8II4LXiGwQrlxebzgE/HAPByT0svV6/2LYMEy4VjMg8AylMbl9XgkVQLr8ZjEcpXBgiXguCis3Lg8rxepFlgvKxbGVUPPF3yCBdtxNC7v60WqBnbmFau9XKT39SLVF+yMkUnEhfV6wBEZQVyymgR2lhWjuCismsci83A8kmYLZj0yjusorNcSjsi71nF5WS/SNDCLK4a46mq+YJYik44LXqkckfxVrvmJqREX1uuV6O/k56BHR4bPKm35e/xaF3qPgale8sNPTMs1Q1ztqC0YCR+Ay2tm/S+Sco5E5jUuohoYWYuMWAwNceVTD4xsRUYshFYSFvEeFzERGImfF68d2tqdEHHlMxMYiSMjrUM7GhZBXE+mAiNrkZE4tFBpdGsxsdyoGOJaMhcYKwlNQmlYBHG9MhsY2YosVhrdkZhCCGub6cBIamRaENc+84Exa6EhrDSnCYxph4awcgzDf+q3W3MzmblgAAAAAElFTkSuQmCC;" parent="1" vertex="1"><mxGeometry x="216.57999999999998" y="2432" width="131.36" height="70" as="geometry"/></mxCell><mxCell id="RUVuw_bvnlBbFeJsy6Rq-271" value="&lt;pre style=&quot;background-color: rgb(255, 255, 255); line-height: 40%;&quot;&gt;&lt;font face=&quot;Helvetica&quot;&gt;&lt;b&gt;GoodsService&lt;/b&gt;&lt;/font&gt;&lt;font color=&quot;#080808&quot;&gt;&lt;br&gt;&lt;/font&gt;&lt;/pre&gt;&lt;pre style=&quot;background-color: rgb(255, 255, 255); color: rgb(8, 8, 8); line-height: 40%;&quot;&gt;&lt;font face=&quot;Helvetica&quot; style=&quot;font-size: 12px;&quot;&gt;&lt;b&gt;&lt;span style=&quot;color: rgb(0, 0, 0);&quot;&gt;(from &lt;/span&gt;&lt;/b&gt;&lt;/font&gt;&lt;b&gt;&lt;font face=&quot;Helvetica&quot;&gt;货物基本信息模块)&lt;/font&gt;&lt;/b&gt;&lt;/pre&gt;" style="text;html=1;align=center;verticalAlign=middle;resizable=0;points=[];autosize=1;strokeColor=none;fillColor=none;" parent="1" vertex="1"><mxGeometry x="197.94" y="2492" width="152" height="58" as="geometry"/></mxCell><mxCell id="RUVuw_bvnlBbFeJsy6Rq-272" value="" style="shape=image;imageAspect=0;aspect=fixed;verticalLabelPosition=bottom;verticalAlign=top;strokeWidth=2;fillColor=#CCFFFF;gradientColor=#87FFEF;image=data:image/png,iVBORw0KGgoAAAANSUhEUgAAAJgAAABRCAYAAAAuJW9dAAAAAXNSR0IArs4c6QAAAARnQU1BAACxjwv8YQUAAAAJcEhZcwAAEk4AABJOAV4u5coAAAOCSURBVHhe7dxBbtswEIVhuei+h5HP1JwpPZN1mO4LpJ5YA1O0JJPUkDPivG9jrwo0+fPIBIkuX3cDQCVdBPbncp3f5fv9dZvfQQ2nC+xITCkQnKzTBLYX1nggimnj30VoMswHFod1JKYUa8EhtnJmA2sdVgyhyTAXmHZYa8LYEFkeU4GFceWENf77O7/bNv38Nb8rh9DymQmM40oNKyUqJhEXQ2R51APLXa21sCQDSsWhIbJ9qoHlxBWHpRFVDGv2nlpgqUeixbBCiGyfSmAlcVkLK4Yjc92P+bWZ3LgoLOtxwbamgZXEdRb8fwrvlaCwYHsorDPGxRDZq2aBvVuvM9239iCypSaBpcaF+1Z/1I/IMx+JW7BiT9UD21uvHuNiiOyhamDvjkbon9oR2fN6MaxYxcC8Ho1bpmma3/mifsnvHX+BTdeP71dvqgSG9VrnccWwYA2EK+YtMvHAsF4QwoI14nXFEBhUJRoYjsd0XlYMCwZVITBFHlasSWA4Hh/Ci74XWDBlva+YWGB7F3zwCwsGVSEwqErsD2/xM7A018tl+BzG4WPAz8FAGMXlTbPAvK+Xx7hIk8AQ1zMuOh49wRFZmdflYk0u+V7Fcd3uH2p+Cs94+/x+ZePY57IhsErW4iJbgfVK7Ijk52KFD2Tzaisuj3AHE4a4lhCYoHdxeTseCQITguVaJ/qMVq8X/dS49has1+8iRRfM40U/jIvCwnIt4Yg8II4LXiGwQrlxebzgE/HAPByT0svV6/2LYMEy4VjMg8AylMbl9XgkVQLr8ZjEcpXBgiXguCis3Lg8rxepFlgvKxbGVUPPF3yCBdtxNC7v60WqBnbmFau9XKT39SLVF+yMkUnEhfV6wBEZQVyymgR2lhWjuCismsci83A8kmYLZj0yjusorNcSjsi71nF5WS/SNDCLK4a46mq+YJYik44LXqkckfxVrvmJqREX1uuV6O/k56BHR4bPKm35e/xaF3qPgale8sNPTMs1Q1ztqC0YCR+Ay2tm/S+Sco5E5jUuohoYWYuMWAwNceVTD4xsRUYshFYSFvEeFzERGImfF68d2tqdEHHlMxMYiSMjrUM7GhZBXE+mAiNrkZE4tFBpdGsxsdyoGOJaMhcYKwlNQmlYBHG9MhsY2YosVhrdkZhCCGub6cBIamRaENc+84Exa6EhrDSnCYxph4awcgzDf+q3W3MzmblgAAAAAElFTkSuQmCC;" parent="1" vertex="1"><mxGeometry x="427.56" y="2316" width="131.36" height="70" as="geometry"/></mxCell><mxCell id="RUVuw_bvnlBbFeJsy6Rq-273" value="&lt;pre style=&quot;background-color: rgb(255, 255, 255); line-height: 40%;&quot;&gt;&lt;font face=&quot;Helvetica&quot;&gt;&lt;b&gt;CertificateService&lt;/b&gt;&lt;/font&gt;&lt;font color=&quot;#080808&quot;&gt;&lt;br&gt;&lt;/font&gt;&lt;/pre&gt;&lt;pre style=&quot;background-color: rgb(255, 255, 255); color: rgb(8, 8, 8); line-height: 40%;&quot;&gt;&lt;font face=&quot;Helvetica&quot; style=&quot;font-size: 12px;&quot;&gt;&lt;b&gt;&lt;span style=&quot;color: rgb(0, 0, 0);&quot;&gt;(from &lt;/span&gt;&lt;/b&gt;&lt;/font&gt;&lt;font face=&quot;Helvetica&quot;&gt;&lt;b&gt;证件基本信息模块)&lt;/b&gt;&lt;/font&gt;&lt;/pre&gt;" style="text;html=1;align=center;verticalAlign=middle;resizable=0;points=[];autosize=1;strokeColor=none;fillColor=none;" parent="1" vertex="1"><mxGeometry x="404.79" y="2372" width="152" height="58" as="geometry"/></mxCell><mxCell id="RUVuw_bvnlBbFeJsy6Rq-274" value="" style="shape=image;imageAspect=0;aspect=fixed;verticalLabelPosition=bottom;verticalAlign=top;strokeWidth=2;fillColor=#CCFFFF;gradientColor=#87FFEF;image=data:image/png,iVBORw0KGgoAAAANSUhEUgAAAJgAAABRCAYAAAAuJW9dAAAAAXNSR0IArs4c6QAAAARnQU1BAACxjwv8YQUAAAAJcEhZcwAAEk4AABJOAV4u5coAAAOCSURBVHhe7dxBbtswEIVhuei+h5HP1JwpPZN1mO4LpJ5YA1O0JJPUkDPivG9jrwo0+fPIBIkuX3cDQCVdBPbncp3f5fv9dZvfQQ2nC+xITCkQnKzTBLYX1nggimnj30VoMswHFod1JKYUa8EhtnJmA2sdVgyhyTAXmHZYa8LYEFkeU4GFceWENf77O7/bNv38Nb8rh9DymQmM40oNKyUqJhEXQ2R51APLXa21sCQDSsWhIbJ9qoHlxBWHpRFVDGv2nlpgqUeixbBCiGyfSmAlcVkLK4Yjc92P+bWZ3LgoLOtxwbamgZXEdRb8fwrvlaCwYHsorDPGxRDZq2aBvVuvM9239iCypSaBpcaF+1Z/1I/IMx+JW7BiT9UD21uvHuNiiOyhamDvjkbon9oR2fN6MaxYxcC8Ho1bpmma3/mifsnvHX+BTdeP71dvqgSG9VrnccWwYA2EK+YtMvHAsF4QwoI14nXFEBhUJRoYjsd0XlYMCwZVITBFHlasSWA4Hh/Ci74XWDBlva+YWGB7F3zwCwsGVSEwqErsD2/xM7A018tl+BzG4WPAz8FAGMXlTbPAvK+Xx7hIk8AQ1zMuOh49wRFZmdflYk0u+V7Fcd3uH2p+Cs94+/x+ZePY57IhsErW4iJbgfVK7Ijk52KFD2Tzaisuj3AHE4a4lhCYoHdxeTseCQITguVaJ/qMVq8X/dS49has1+8iRRfM40U/jIvCwnIt4Yg8II4LXiGwQrlxebzgE/HAPByT0svV6/2LYMEy4VjMg8AylMbl9XgkVQLr8ZjEcpXBgiXguCis3Lg8rxepFlgvKxbGVUPPF3yCBdtxNC7v60WqBnbmFau9XKT39SLVF+yMkUnEhfV6wBEZQVyymgR2lhWjuCismsci83A8kmYLZj0yjusorNcSjsi71nF5WS/SNDCLK4a46mq+YJYik44LXqkckfxVrvmJqREX1uuV6O/k56BHR4bPKm35e/xaF3qPgale8sNPTMs1Q1ztqC0YCR+Ay2tm/S+Sco5E5jUuohoYWYuMWAwNceVTD4xsRUYshFYSFvEeFzERGImfF68d2tqdEHHlMxMYiSMjrUM7GhZBXE+mAiNrkZE4tFBpdGsxsdyoGOJaMhcYKwlNQmlYBHG9MhsY2YosVhrdkZhCCGub6cBIamRaENc+84Exa6EhrDSnCYxph4awcgzDf+q3W3MzmblgAAAAAElFTkSuQmCC;" parent="1" vertex="1"><mxGeometry x="624.89" y="2316" width="131.36" height="70" as="geometry"/></mxCell><mxCell id="RUVuw_bvnlBbFeJsy6Rq-275" value="&lt;pre style=&quot;background-color: rgb(255, 255, 255); line-height: 40%;&quot;&gt;&lt;font face=&quot;Helvetica&quot;&gt;&lt;b&gt;CompanyService&lt;/b&gt;&lt;/font&gt;&lt;font color=&quot;#080808&quot;&gt;&lt;br&gt;&lt;/font&gt;&lt;/pre&gt;&lt;pre style=&quot;background-color: rgb(255, 255, 255); color: rgb(8, 8, 8); line-height: 40%;&quot;&gt;&lt;font face=&quot;Helvetica&quot; style=&quot;font-size: 12px;&quot;&gt;&lt;b&gt;&lt;span style=&quot;color: rgb(0, 0, 0);&quot;&gt;(from &lt;/span&gt;&lt;/b&gt;&lt;/font&gt;&lt;b&gt;&lt;font face=&quot;Helvetica&quot;&gt;公司信息管理模块)&lt;/font&gt;&lt;/b&gt;&lt;/pre&gt;" style="text;html=1;align=center;verticalAlign=middle;resizable=0;points=[];autosize=1;strokeColor=none;fillColor=none;" parent="1" vertex="1"><mxGeometry x="606.25" y="2376" width="152" height="58" as="geometry"/></mxCell><mxCell id="RUVuw_bvnlBbFeJsy6Rq-276" value="" style="shape=image;imageAspect=0;aspect=fixed;verticalLabelPosition=bottom;verticalAlign=top;strokeWidth=2;fillColor=#CCFFFF;gradientColor=#87FFEF;image=data:image/png,iVBORw0KGgoAAAANSUhEUgAAAJgAAABRCAYAAAAuJW9dAAAAAXNSR0IArs4c6QAAAARnQU1BAACxjwv8YQUAAAAJcEhZcwAAEk4AABJOAV4u5coAAAOCSURBVHhe7dxBbtswEIVhuei+h5HP1JwpPZN1mO4LpJ5YA1O0JJPUkDPivG9jrwo0+fPIBIkuX3cDQCVdBPbncp3f5fv9dZvfQQ2nC+xITCkQnKzTBLYX1nggimnj30VoMswHFod1JKYUa8EhtnJmA2sdVgyhyTAXmHZYa8LYEFkeU4GFceWENf77O7/bNv38Nb8rh9DymQmM40oNKyUqJhEXQ2R51APLXa21sCQDSsWhIbJ9qoHlxBWHpRFVDGv2nlpgqUeixbBCiGyfSmAlcVkLK4Yjc92P+bWZ3LgoLOtxwbamgZXEdRb8fwrvlaCwYHsorDPGxRDZq2aBvVuvM9239iCypSaBpcaF+1Z/1I/IMx+JW7BiT9UD21uvHuNiiOyhamDvjkbon9oR2fN6MaxYxcC8Ho1bpmma3/mifsnvHX+BTdeP71dvqgSG9VrnccWwYA2EK+YtMvHAsF4QwoI14nXFEBhUJRoYjsd0XlYMCwZVITBFHlasSWA4Hh/Ci74XWDBlva+YWGB7F3zwCwsGVSEwqErsD2/xM7A018tl+BzG4WPAz8FAGMXlTbPAvK+Xx7hIk8AQ1zMuOh49wRFZmdflYk0u+V7Fcd3uH2p+Cs94+/x+ZePY57IhsErW4iJbgfVK7Ijk52KFD2Tzaisuj3AHE4a4lhCYoHdxeTseCQITguVaJ/qMVq8X/dS49has1+8iRRfM40U/jIvCwnIt4Yg8II4LXiGwQrlxebzgE/HAPByT0svV6/2LYMEy4VjMg8AylMbl9XgkVQLr8ZjEcpXBgiXguCis3Lg8rxepFlgvKxbGVUPPF3yCBdtxNC7v60WqBnbmFau9XKT39SLVF+yMkUnEhfV6wBEZQVyymgR2lhWjuCismsci83A8kmYLZj0yjusorNcSjsi71nF5WS/SNDCLK4a46mq+YJYik44LXqkckfxVrvmJqREX1uuV6O/k56BHR4bPKm35e/xaF3qPgale8sNPTMs1Q1ztqC0YCR+Ay2tm/S+Sco5E5jUuohoYWYuMWAwNceVTD4xsRUYshFYSFvEeFzERGImfF68d2tqdEHHlMxMYiSMjrUM7GhZBXE+mAiNrkZE4tFBpdGsxsdyoGOJaMhcYKwlNQmlYBHG9MhsY2YosVhrdkZhCCGub6cBIamRaENc+84Exa6EhrDSnCYxph4awcgzDf+q3W3MzmblgAAAAAElFTkSuQmCC;" parent="1" vertex="1"><mxGeometry x="379.25" y="2439" width="131.36" height="70" as="geometry"/></mxCell><mxCell id="RUVuw_bvnlBbFeJsy6Rq-277" value="" style="shape=image;imageAspect=0;aspect=fixed;verticalLabelPosition=bottom;verticalAlign=top;strokeWidth=2;fillColor=#CCFFFF;gradientColor=#87FFEF;image=data:image/png,iVBORw0KGgoAAAANSUhEUgAAAJgAAABRCAYAAAAuJW9dAAAAAXNSR0IArs4c6QAAAARnQU1BAACxjwv8YQUAAAAJcEhZcwAAEk4AABJOAV4u5coAAAOCSURBVHhe7dxBbtswEIVhuei+h5HP1JwpPZN1mO4LpJ5YA1O0JJPUkDPivG9jrwo0+fPIBIkuX3cDQCVdBPbncp3f5fv9dZvfQQ2nC+xITCkQnKzTBLYX1nggimnj30VoMswHFod1JKYUa8EhtnJmA2sdVgyhyTAXmHZYa8LYEFkeU4GFceWENf77O7/bNv38Nb8rh9DymQmM40oNKyUqJhEXQ2R51APLXa21sCQDSsWhIbJ9qoHlxBWHpRFVDGv2nlpgqUeixbBCiGyfSmAlcVkLK4Yjc92P+bWZ3LgoLOtxwbamgZXEdRb8fwrvlaCwYHsorDPGxRDZq2aBvVuvM9239iCypSaBpcaF+1Z/1I/IMx+JW7BiT9UD21uvHuNiiOyhamDvjkbon9oR2fN6MaxYxcC8Ho1bpmma3/mifsnvHX+BTdeP71dvqgSG9VrnccWwYA2EK+YtMvHAsF4QwoI14nXFEBhUJRoYjsd0XlYMCwZVITBFHlasSWA4Hh/Ci74XWDBlva+YWGB7F3zwCwsGVSEwqErsD2/xM7A018tl+BzG4WPAz8FAGMXlTbPAvK+Xx7hIk8AQ1zMuOh49wRFZmdflYk0u+V7Fcd3uH2p+Cs94+/x+ZePY57IhsErW4iJbgfVK7Ijk52KFD2Tzaisuj3AHE4a4lhCYoHdxeTseCQITguVaJ/qMVq8X/dS49has1+8iRRfM40U/jIvCwnIt4Yg8II4LXiGwQrlxebzgE/HAPByT0svV6/2LYMEy4VjMg8AylMbl9XgkVQLr8ZjEcpXBgiXguCis3Lg8rxepFlgvKxbGVUPPF3yCBdtxNC7v60WqBnbmFau9XKT39SLVF+yMkUnEhfV6wBEZQVyymgR2lhWjuCismsci83A8kmYLZj0yjusorNcSjsi71nF5WS/SNDCLK4a46mq+YJYik44LXqkckfxVrvmJqREX1uuV6O/k56BHR4bPKm35e/xaF3qPgale8sNPTMs1Q1ztqC0YCR+Ay2tm/S+Sco5E5jUuohoYWYuMWAwNceVTD4xsRUYshFYSFvEeFzERGImfF68d2tqdEHHlMxMYiSMjrUM7GhZBXE+mAiNrkZE4tFBpdGsxsdyoGOJaMhcYKwlNQmlYBHG9MhsY2YosVhrdkZhCCGub6cBIamRaENc+84Exa6EhrDSnCYxph4awcgzDf+q3W3MzmblgAAAAAElFTkSuQmCC;" parent="1" vertex="1"><mxGeometry x="576.5799999999999" y="2439" width="131.36" height="70" as="geometry"/></mxCell><mxCell id="RUVuw_bvnlBbFeJsy6Rq-278" value="&lt;pre style=&quot;background-color: rgb(255, 255, 255); line-height: 40%;&quot;&gt;&lt;font face=&quot;Helvetica&quot;&gt;&lt;b&gt;PersonnelService&lt;/b&gt;&lt;/font&gt;&lt;font color=&quot;#080808&quot;&gt;&lt;br&gt;&lt;/font&gt;&lt;/pre&gt;&lt;pre style=&quot;background-color: rgb(255, 255, 255); color: rgb(8, 8, 8); line-height: 40%;&quot;&gt;&lt;font face=&quot;Helvetica&quot; style=&quot;font-size: 12px;&quot;&gt;&lt;b&gt;&lt;span style=&quot;color: rgb(0, 0, 0);&quot;&gt;(from &lt;/span&gt;&lt;/b&gt;&lt;/font&gt;&lt;font face=&quot;Helvetica&quot;&gt;&lt;b&gt;人员信息管理模块)&lt;/b&gt;&lt;/font&gt;&lt;/pre&gt;" style="text;html=1;align=center;verticalAlign=middle;resizable=0;points=[];autosize=1;strokeColor=none;fillColor=none;" parent="1" vertex="1"><mxGeometry x="557.94" y="2499" width="152" height="58" as="geometry"/></mxCell><mxCell id="RUVuw_bvnlBbFeJsy6Rq-279" value="&lt;pre style=&quot;background-color: rgb(255, 255, 255); line-height: 40%;&quot;&gt;&lt;font face=&quot;Helvetica&quot;&gt;&lt;b&gt;MaterialService&lt;/b&gt;&lt;/font&gt;&lt;font color=&quot;#080808&quot;&gt;&lt;br&gt;&lt;/font&gt;&lt;/pre&gt;&lt;pre style=&quot;background-color: rgb(255, 255, 255); color: rgb(8, 8, 8); line-height: 40%;&quot;&gt;&lt;font face=&quot;Helvetica&quot; style=&quot;font-size: 12px;&quot;&gt;&lt;b&gt;&lt;span style=&quot;color: rgb(0, 0, 0);&quot;&gt;(from &lt;/span&gt;&lt;/b&gt;&lt;/font&gt;&lt;font face=&quot;Helvetica&quot;&gt;&lt;b&gt;物资信息管理模块)&lt;/b&gt;&lt;/font&gt;&lt;/pre&gt;" style="text;html=1;align=center;verticalAlign=middle;resizable=0;points=[];autosize=1;strokeColor=none;fillColor=none;" parent="1" vertex="1"><mxGeometry x="354.25000000000006" y="2506" width="152" height="58" as="geometry"/></mxCell><mxCell id="232" value="" style="shape=image;imageAspect=0;aspect=fixed;verticalLabelPosition=bottom;verticalAlign=top;strokeWidth=2;fillColor=#CCFFFF;gradientColor=#87FFEF;image=data:image/png,iVBORw0KGgoAAAANSUhEUgAAAJgAAABRCAYAAAAuJW9dAAAAAXNSR0IArs4c6QAAAARnQU1BAACxjwv8YQUAAAAJcEhZcwAAEk4AABJOAV4u5coAAAOCSURBVHhe7dxBbtswEIVhuei+h5HP1JwpPZN1mO4LpJ5YA1O0JJPUkDPivG9jrwo0+fPIBIkuX3cDQCVdBPbncp3f5fv9dZvfQQ2nC+xITCkQnKzTBLYX1nggimnj30VoMswHFod1JKYUa8EhtnJmA2sdVgyhyTAXmHZYa8LYEFkeU4GFceWENf77O7/bNv38Nb8rh9DymQmM40oNKyUqJhEXQ2R51APLXa21sCQDSsWhIbJ9qoHlxBWHpRFVDGv2nlpgqUeixbBCiGyfSmAlcVkLK4Yjc92P+bWZ3LgoLOtxwbamgZXEdRb8fwrvlaCwYHsorDPGxRDZq2aBvVuvM9239iCypSaBpcaF+1Z/1I/IMx+JW7BiT9UD21uvHuNiiOyhamDvjkbon9oR2fN6MaxYxcC8Ho1bpmma3/mifsnvHX+BTdeP71dvqgSG9VrnccWwYA2EK+YtMvHAsF4QwoI14nXFEBhUJRoYjsd0XlYMCwZVITBFHlasSWA4Hh/Ci74XWDBlva+YWGB7F3zwCwsGVSEwqErsD2/xM7A018tl+BzG4WPAz8FAGMXlTbPAvK+Xx7hIk8AQ1zMuOh49wRFZmdflYk0u+V7Fcd3uH2p+Cs94+/x+ZePY57IhsErW4iJbgfVK7Ijk52KFD2Tzaisuj3AHE4a4lhCYoHdxeTseCQITguVaJ/qMVq8X/dS49has1+8iRRfM40U/jIvCwnIt4Yg8II4LXiGwQrlxebzgE/HAPByT0svV6/2LYMEy4VjMg8AylMbl9XgkVQLr8ZjEcpXBgiXguCis3Lg8rxepFlgvKxbGVUPPF3yCBdtxNC7v60WqBnbmFau9XKT39SLVF+yMkUnEhfV6wBEZQVyymgR2lhWjuCismsci83A8kmYLZj0yjusorNcSjsi71nF5WS/SNDCLK4a46mq+YJYik44LXqkckfxVrvmJqREX1uuV6O/k56BHR4bPKm35e/xaF3qPgale8sNPTMs1Q1ztqC0YCR+Ay2tm/S+Sco5E5jUuohoYWYuMWAwNceVTD4xsRUYshFYSFvEeFzERGImfF68d2tqdEHHlMxMYiSMjrUM7GhZBXE+mAiNrkZE4tFBpdGsxsdyoGOJaMhcYKwlNQmlYBHG9MhsY2YosVhrdkZhCCGub6cBIamRaENc+84Exa6EhrDSnCYxph4awcgzDf+q3W3MzmblgAAAAAElFTkSuQmCC;" parent="1" vertex="1"><mxGeometry x="726.6399999999999" y="2434" width="131.36" height="70" as="geometry"/></mxCell><mxCell id="233" value="&lt;pre style=&quot;background-color: rgb(255, 255, 255); line-height: 40%;&quot;&gt;&lt;font face=&quot;Helvetica&quot;&gt;&lt;b&gt;VehicleService&lt;/b&gt;&lt;/font&gt;&lt;font color=&quot;#080808&quot;&gt;&lt;br&gt;&lt;/font&gt;&lt;/pre&gt;&lt;pre style=&quot;background-color: rgb(255, 255, 255); color: rgb(8, 8, 8); line-height: 40%;&quot;&gt;&lt;font face=&quot;Helvetica&quot; style=&quot;font-size: 12px;&quot;&gt;&lt;b&gt;&lt;span style=&quot;color: rgb(0, 0, 0);&quot;&gt;(from &lt;/span&gt;&lt;/b&gt;&lt;/font&gt;&lt;b&gt;&lt;font face=&quot;Helvetica&quot;&gt;车辆信息管理模块)&lt;/font&gt;&lt;/b&gt;&lt;/pre&gt;" style="text;html=1;align=center;verticalAlign=middle;resizable=0;points=[];autosize=1;strokeColor=none;fillColor=none;" parent="1" vertex="1"><mxGeometry x="708" y="2494" width="152" height="58" as="geometry"/></mxCell><mxCell id="234" value="" style="shape=image;imageAspect=0;aspect=fixed;verticalLabelPosition=bottom;verticalAlign=top;strokeWidth=2;fillColor=#CCFFFF;gradientColor=#87FFEF;image=data:image/png,iVBORw0KGgoAAAANSUhEUgAAAJgAAABRCAYAAAAuJW9dAAAAAXNSR0IArs4c6QAAAARnQU1BAACxjwv8YQUAAAAJcEhZcwAAEk4AABJOAV4u5coAAAOCSURBVHhe7dxBbtswEIVhuei+h5HP1JwpPZN1mO4LpJ5YA1O0JJPUkDPivG9jrwo0+fPIBIkuX3cDQCVdBPbncp3f5fv9dZvfQQ2nC+xITCkQnKzTBLYX1nggimnj30VoMswHFod1JKYUa8EhtnJmA2sdVgyhyTAXmHZYa8LYEFkeU4GFceWENf77O7/bNv38Nb8rh9DymQmM40oNKyUqJhEXQ2R51APLXa21sCQDSsWhIbJ9qoHlxBWHpRFVDGv2nlpgqUeixbBCiGyfSmAlcVkLK4Yjc92P+bWZ3LgoLOtxwbamgZXEdRb8fwrvlaCwYHsorDPGxRDZq2aBvVuvM9239iCypSaBpcaF+1Z/1I/IMx+JW7BiT9UD21uvHuNiiOyhamDvjkbon9oR2fN6MaxYxcC8Ho1bpmma3/mifsnvHX+BTdeP71dvqgSG9VrnccWwYA2EK+YtMvHAsF4QwoI14nXFEBhUJRoYjsd0XlYMCwZVITBFHlasSWA4Hh/Ci74XWDBlva+YWGB7F3zwCwsGVSEwqErsD2/xM7A018tl+BzG4WPAz8FAGMXlTbPAvK+Xx7hIk8AQ1zMuOh49wRFZmdflYk0u+V7Fcd3uH2p+Cs94+/x+ZePY57IhsErW4iJbgfVK7Ijk52KFD2Tzaisuj3AHE4a4lhCYoHdxeTseCQITguVaJ/qMVq8X/dS49has1+8iRRfM40U/jIvCwnIt4Yg8II4LXiGwQrlxebzgE/HAPByT0svV6/2LYMEy4VjMg8AylMbl9XgkVQLr8ZjEcpXBgiXguCis3Lg8rxepFlgvKxbGVUPPF3yCBdtxNC7v60WqBnbmFau9XKT39SLVF+yMkUnEhfV6wBEZQVyymgR2lhWjuCismsci83A8kmYLZj0yjusorNcSjsi71nF5WS/SNDCLK4a46mq+YJYik44LXqkckfxVrvmJqREX1uuV6O/k56BHR4bPKm35e/xaF3qPgale8sNPTMs1Q1ztqC0YCR+Ay2tm/S+Sco5E5jUuohoYWYuMWAwNceVTD4xsRUYshFYSFvEeFzERGImfF68d2tqdEHHlMxMYiSMjrUM7GhZBXE+mAiNrkZE4tFBpdGsxsdyoGOJaMhcYKwlNQmlYBHG9MhsY2YosVhrdkZhCCGub6cBIamRaENc+84Exa6EhrDSnCYxph4awcgzDf+q3W3MzmblgAAAAAElFTkSuQmCC;" parent="1" vertex="1"><mxGeometry x="58.309999999999995" y="2724" width="131.36" height="70" as="geometry"/></mxCell><mxCell id="235" value="&lt;pre style=&quot;background-color: rgb(255, 255, 255); line-height: 40%;&quot;&gt;&lt;font face=&quot;Helvetica&quot;&gt;&lt;b&gt;BuildingLeasing&lt;/b&gt;&lt;/font&gt;&lt;/pre&gt;&lt;pre style=&quot;background-color: rgb(255, 255, 255); line-height: 40%;&quot;&gt;&lt;font face=&quot;Helvetica&quot;&gt;&lt;b&gt;Service&lt;/b&gt;&lt;/font&gt;&lt;font color=&quot;#080808&quot;&gt;&lt;br&gt;&lt;/font&gt;&lt;/pre&gt;&lt;pre style=&quot;background-color: rgb(255, 255, 255); color: rgb(8, 8, 8); line-height: 40%;&quot;&gt;&lt;font face=&quot;Helvetica&quot; style=&quot;font-size: 12px;&quot;&gt;&lt;b&gt;&lt;span style=&quot;color: rgb(0, 0, 0);&quot;&gt;(from &lt;/span&gt;&lt;/b&gt;&lt;/font&gt;&lt;font face=&quot;Helvetica&quot;&gt;&lt;b&gt;建筑租赁&lt;/b&gt;&lt;/font&gt;&lt;b style=&quot;font-family: Helvetica;&quot;&gt;模块)&lt;/b&gt;&lt;br&gt;&lt;/pre&gt;" style="text;html=1;align=center;verticalAlign=middle;resizable=0;points=[];autosize=1;strokeColor=none;fillColor=none;" parent="1" vertex="1"><mxGeometry x="44.879999999999995" y="2784" width="128" height="74" as="geometry"/></mxCell><mxCell id="236" value="" style="shape=image;imageAspect=0;aspect=fixed;verticalLabelPosition=bottom;verticalAlign=top;strokeWidth=2;fillColor=#CCFFFF;gradientColor=#87FFEF;image=data:image/png,iVBORw0KGgoAAAANSUhEUgAAAJgAAABRCAYAAAAuJW9dAAAAAXNSR0IArs4c6QAAAARnQU1BAACxjwv8YQUAAAAJcEhZcwAAEk4AABJOAV4u5coAAAOCSURBVHhe7dxBbtswEIVhuei+h5HP1JwpPZN1mO4LpJ5YA1O0JJPUkDPivG9jrwo0+fPIBIkuX3cDQCVdBPbncp3f5fv9dZvfQQ2nC+xITCkQnKzTBLYX1nggimnj30VoMswHFod1JKYUa8EhtnJmA2sdVgyhyTAXmHZYa8LYEFkeU4GFceWENf77O7/bNv38Nb8rh9DymQmM40oNKyUqJhEXQ2R51APLXa21sCQDSsWhIbJ9qoHlxBWHpRFVDGv2nlpgqUeixbBCiGyfSmAlcVkLK4Yjc92P+bWZ3LgoLOtxwbamgZXEdRb8fwrvlaCwYHsorDPGxRDZq2aBvVuvM9239iCypSaBpcaF+1Z/1I/IMx+JW7BiT9UD21uvHuNiiOyhamDvjkbon9oR2fN6MaxYxcC8Ho1bpmma3/mifsnvHX+BTdeP71dvqgSG9VrnccWwYA2EK+YtMvHAsF4QwoI14nXFEBhUJRoYjsd0XlYMCwZVITBFHlasSWA4Hh/Ci74XWDBlva+YWGB7F3zwCwsGVSEwqErsD2/xM7A018tl+BzG4WPAz8FAGMXlTbPAvK+Xx7hIk8AQ1zMuOh49wRFZmdflYk0u+V7Fcd3uH2p+Cs94+/x+ZePY57IhsErW4iJbgfVK7Ijk52KFD2Tzaisuj3AHE4a4lhCYoHdxeTseCQITguVaJ/qMVq8X/dS49has1+8iRRfM40U/jIvCwnIt4Yg8II4LXiGwQrlxebzgE/HAPByT0svV6/2LYMEy4VjMg8AylMbl9XgkVQLr8ZjEcpXBgiXguCis3Lg8rxepFlgvKxbGVUPPF3yCBdtxNC7v60WqBnbmFau9XKT39SLVF+yMkUnEhfV6wBEZQVyymgR2lhWjuCismsci83A8kmYLZj0yjusorNcSjsi71nF5WS/SNDCLK4a46mq+YJYik44LXqkckfxVrvmJqREX1uuV6O/k56BHR4bPKm35e/xaF3qPgale8sNPTMs1Q1ztqC0YCR+Ay2tm/S+Sco5E5jUuohoYWYuMWAwNceVTD4xsRUYshFYSFvEeFzERGImfF68d2tqdEHHlMxMYiSMjrUM7GhZBXE+mAiNrkZE4tFBpdGsxsdyoGOJaMhcYKwlNQmlYBHG9MhsY2YosVhrdkZhCCGub6cBIamRaENc+84Exa6EhrDSnCYxph4awcgzDf+q3W3MzmblgAAAAAElFTkSuQmCC;" parent="1" vertex="1"><mxGeometry x="229.86999999999998" y="2732" width="131.36" height="70" as="geometry"/></mxCell><mxCell id="237" value="&lt;pre style=&quot;background-color: rgb(255, 255, 255); line-height: 40%;&quot;&gt;&lt;font face=&quot;Helvetica&quot;&gt;&lt;b&gt;Cargo&lt;/b&gt;&lt;/font&gt;&lt;/pre&gt;&lt;pre style=&quot;background-color: rgb(255, 255, 255); line-height: 40%;&quot;&gt;&lt;font face=&quot;Helvetica&quot;&gt;&lt;b&gt;ManagementService&lt;/b&gt;&lt;/font&gt;&lt;font color=&quot;#080808&quot;&gt;&lt;br&gt;&lt;/font&gt;&lt;/pre&gt;&lt;pre style=&quot;background-color: rgb(255, 255, 255); color: rgb(8, 8, 8); line-height: 40%;&quot;&gt;&lt;font face=&quot;Helvetica&quot; style=&quot;font-size: 12px;&quot;&gt;&lt;b&gt;&lt;span style=&quot;color: rgb(0, 0, 0);&quot;&gt;(from &lt;/span&gt;&lt;/b&gt;&lt;/font&gt;&lt;font face=&quot;Helvetica&quot;&gt;&lt;b&gt;货物管理&lt;/b&gt;&lt;/font&gt;&lt;b style=&quot;font-family: Helvetica;&quot;&gt;模块)&lt;/b&gt;&lt;br&gt;&lt;/pre&gt;" style="text;html=1;align=center;verticalAlign=middle;resizable=0;points=[];autosize=1;strokeColor=none;fillColor=none;" parent="1" vertex="1"><mxGeometry x="215" y="2791" width="134" height="74" as="geometry"/></mxCell><mxCell id="238" value="" style="shape=image;imageAspect=0;aspect=fixed;verticalLabelPosition=bottom;verticalAlign=top;strokeWidth=2;fillColor=#CCFFFF;gradientColor=#87FFEF;image=data:image/png,iVBORw0KGgoAAAANSUhEUgAAAJgAAABRCAYAAAAuJW9dAAAAAXNSR0IArs4c6QAAAARnQU1BAACxjwv8YQUAAAAJcEhZcwAAEk4AABJOAV4u5coAAAOCSURBVHhe7dxBbtswEIVhuei+h5HP1JwpPZN1mO4LpJ5YA1O0JJPUkDPivG9jrwo0+fPIBIkuX3cDQCVdBPbncp3f5fv9dZvfQQ2nC+xITCkQnKzTBLYX1nggimnj30VoMswHFod1JKYUa8EhtnJmA2sdVgyhyTAXmHZYa8LYEFkeU4GFceWENf77O7/bNv38Nb8rh9DymQmM40oNKyUqJhEXQ2R51APLXa21sCQDSsWhIbJ9qoHlxBWHpRFVDGv2nlpgqUeixbBCiGyfSmAlcVkLK4Yjc92P+bWZ3LgoLOtxwbamgZXEdRb8fwrvlaCwYHsorDPGxRDZq2aBvVuvM9239iCypSaBpcaF+1Z/1I/IMx+JW7BiT9UD21uvHuNiiOyhamDvjkbon9oR2fN6MaxYxcC8Ho1bpmma3/mifsnvHX+BTdeP71dvqgSG9VrnccWwYA2EK+YtMvHAsF4QwoI14nXFEBhUJRoYjsd0XlYMCwZVITBFHlasSWA4Hh/Ci74XWDBlva+YWGB7F3zwCwsGVSEwqErsD2/xM7A018tl+BzG4WPAz8FAGMXlTbPAvK+Xx7hIk8AQ1zMuOh49wRFZmdflYk0u+V7Fcd3uH2p+Cs94+/x+ZePY57IhsErW4iJbgfVK7Ijk52KFD2Tzaisuj3AHE4a4lhCYoHdxeTseCQITguVaJ/qMVq8X/dS49has1+8iRRfM40U/jIvCwnIt4Yg8II4LXiGwQrlxebzgE/HAPByT0svV6/2LYMEy4VjMg8AylMbl9XgkVQLr8ZjEcpXBgiXguCis3Lg8rxepFlgvKxbGVUPPF3yCBdtxNC7v60WqBnbmFau9XKT39SLVF+yMkUnEhfV6wBEZQVyymgR2lhWjuCismsci83A8kmYLZj0yjusorNcSjsi71nF5WS/SNDCLK4a46mq+YJYik44LXqkckfxVrvmJqREX1uuV6O/k56BHR4bPKm35e/xaF3qPgale8sNPTMs1Q1ztqC0YCR+Ay2tm/S+Sco5E5jUuohoYWYuMWAwNceVTD4xsRUYshFYSFvEeFzERGImfF68d2tqdEHHlMxMYiSMjrUM7GhZBXE+mAiNrkZE4tFBpdGsxsdyoGOJaMhcYKwlNQmlYBHG9MhsY2YosVhrdkZhCCGub6cBIamRaENc+84Exa6EhrDSnCYxph4awcgzDf+q3W3MzmblgAAAAAElFTkSuQmCC;" parent="1" vertex="1"><mxGeometry x="14.319999999999993" y="2865" width="131.36" height="70" as="geometry"/></mxCell><mxCell id="239" value="&lt;pre style=&quot;background-color: rgb(255, 255, 255); line-height: 40%;&quot;&gt;&lt;font face=&quot;Helvetica&quot;&gt;&lt;b&gt;Personnel&lt;/b&gt;&lt;/font&gt;&lt;/pre&gt;&lt;pre style=&quot;background-color: rgb(255, 255, 255); line-height: 40%;&quot;&gt;&lt;font face=&quot;Helvetica&quot;&gt;&lt;b&gt;ManagementService&lt;/b&gt;&lt;/font&gt;&lt;font color=&quot;#080808&quot;&gt;&lt;br&gt;&lt;/font&gt;&lt;/pre&gt;&lt;pre style=&quot;background-color: rgb(255, 255, 255); color: rgb(8, 8, 8); line-height: 40%;&quot;&gt;&lt;font face=&quot;Helvetica&quot; style=&quot;font-size: 12px;&quot;&gt;&lt;b&gt;&lt;span style=&quot;color: rgb(0, 0, 0);&quot;&gt;(from &lt;/span&gt;&lt;/b&gt;&lt;/font&gt;&lt;b&gt;&lt;font face=&quot;Helvetica&quot;&gt;人员管理&lt;/font&gt;&lt;/b&gt;&lt;b style=&quot;font-family: Helvetica;&quot;&gt;&lt;font face=&quot;Helvetica&quot;&gt;模块)&lt;/font&gt;&lt;/b&gt;&lt;br&gt;&lt;/pre&gt;" style="text;html=1;align=center;verticalAlign=middle;resizable=0;points=[];autosize=1;strokeColor=none;fillColor=none;" parent="1" vertex="1"><mxGeometry x="2" y="2920" width="134" height="74" as="geometry"/></mxCell><mxCell id="240" value="" style="shape=image;imageAspect=0;aspect=fixed;verticalLabelPosition=bottom;verticalAlign=top;strokeWidth=2;fillColor=#CCFFFF;gradientColor=#87FFEF;image=data:image/png,iVBORw0KGgoAAAANSUhEUgAAAJgAAABRCAYAAAAuJW9dAAAAAXNSR0IArs4c6QAAAARnQU1BAACxjwv8YQUAAAAJcEhZcwAAEk4AABJOAV4u5coAAAOCSURBVHhe7dxBbtswEIVhuei+h5HP1JwpPZN1mO4LpJ5YA1O0JJPUkDPivG9jrwo0+fPIBIkuX3cDQCVdBPbncp3f5fv9dZvfQQ2nC+xITCkQnKzTBLYX1nggimnj30VoMswHFod1JKYUa8EhtnJmA2sdVgyhyTAXmHZYa8LYEFkeU4GFceWENf77O7/bNv38Nb8rh9DymQmM40oNKyUqJhEXQ2R51APLXa21sCQDSsWhIbJ9qoHlxBWHpRFVDGv2nlpgqUeixbBCiGyfSmAlcVkLK4Yjc92P+bWZ3LgoLOtxwbamgZXEdRb8fwrvlaCwYHsorDPGxRDZq2aBvVuvM9239iCypSaBpcaF+1Z/1I/IMx+JW7BiT9UD21uvHuNiiOyhamDvjkbon9oR2fN6MaxYxcC8Ho1bpmma3/mifsnvHX+BTdeP71dvqgSG9VrnccWwYA2EK+YtMvHAsF4QwoI14nXFEBhUJRoYjsd0XlYMCwZVITBFHlasSWA4Hh/Ci74XWDBlva+YWGB7F3zwCwsGVSEwqErsD2/xM7A018tl+BzG4WPAz8FAGMXlTbPAvK+Xx7hIk8AQ1zMuOh49wRFZmdflYk0u+V7Fcd3uH2p+Cs94+/x+ZePY57IhsErW4iJbgfVK7Ijk52KFD2Tzaisuj3AHE4a4lhCYoHdxeTseCQITguVaJ/qMVq8X/dS49has1+8iRRfM40U/jIvCwnIt4Yg8II4LXiGwQrlxebzgE/HAPByT0svV6/2LYMEy4VjMg8AylMbl9XgkVQLr8ZjEcpXBgiXguCis3Lg8rxepFlgvKxbGVUPPF3yCBdtxNC7v60WqBnbmFau9XKT39SLVF+yMkUnEhfV6wBEZQVyymgR2lhWjuCismsci83A8kmYLZj0yjusorNcSjsi71nF5WS/SNDCLK4a46mq+YJYik44LXqkckfxVrvmJqREX1uuV6O/k56BHR4bPKm35e/xaF3qPgale8sNPTMs1Q1ztqC0YCR+Ay2tm/S+Sco5E5jUuohoYWYuMWAwNceVTD4xsRUYshFYSFvEeFzERGImfF68d2tqdEHHlMxMYiSMjrUM7GhZBXE+mAiNrkZE4tFBpdGsxsdyoGOJaMhcYKwlNQmlYBHG9MhsY2YosVhrdkZhCCGub6cBIamRaENc+84Exa6EhrDSnCYxph4awcgzDf+q3W3MzmblgAAAAAElFTkSuQmCC;" parent="1" vertex="1"><mxGeometry x="181.55999999999997" y="2855" width="131.36" height="70" as="geometry"/></mxCell><mxCell id="241" value="&lt;pre style=&quot;background-color: rgb(255, 255, 255); line-height: 40%;&quot;&gt;&lt;font face=&quot;Helvetica&quot;&gt;&lt;b&gt;Vehicle&lt;/b&gt;&lt;/font&gt;&lt;/pre&gt;&lt;pre style=&quot;background-color: rgb(255, 255, 255); line-height: 40%;&quot;&gt;&lt;font face=&quot;Helvetica&quot;&gt;&lt;b&gt;ManagementService&lt;/b&gt;&lt;/font&gt;&lt;font color=&quot;#080808&quot;&gt;&lt;br&gt;&lt;/font&gt;&lt;/pre&gt;&lt;pre style=&quot;background-color: rgb(255, 255, 255); color: rgb(8, 8, 8); line-height: 40%;&quot;&gt;&lt;font face=&quot;Helvetica&quot; style=&quot;font-size: 12px;&quot;&gt;&lt;b&gt;&lt;span style=&quot;color: rgb(0, 0, 0);&quot;&gt;(from &lt;/span&gt;&lt;/b&gt;&lt;/font&gt;&lt;b&gt;&lt;font face=&quot;Helvetica&quot;&gt;汽车管理&lt;/font&gt;&lt;/b&gt;&lt;b style=&quot;font-family: Helvetica;&quot;&gt;&lt;font face=&quot;Helvetica&quot;&gt;模块)&lt;/font&gt;&lt;/b&gt;&lt;br&gt;&lt;/pre&gt;" style="text;html=1;align=center;verticalAlign=middle;resizable=0;points=[];autosize=1;strokeColor=none;fillColor=none;" parent="1" vertex="1"><mxGeometry x="163.44" y="2916" width="134" height="74" as="geometry"/></mxCell><mxCell id="242" value="" style="shape=image;imageAspect=0;aspect=fixed;verticalLabelPosition=bottom;verticalAlign=top;strokeWidth=2;fillColor=#CCFFFF;gradientColor=#87FFEF;image=data:image/png,iVBORw0KGgoAAAANSUhEUgAAAJgAAABRCAYAAAAuJW9dAAAAAXNSR0IArs4c6QAAAARnQU1BAACxjwv8YQUAAAAJcEhZcwAAEk4AABJOAV4u5coAAAOCSURBVHhe7dxBbtswEIVhuei+h5HP1JwpPZN1mO4LpJ5YA1O0JJPUkDPivG9jrwo0+fPIBIkuX3cDQCVdBPbncp3f5fv9dZvfQQ2nC+xITCkQnKzTBLYX1nggimnj30VoMswHFod1JKYUa8EhtnJmA2sdVgyhyTAXmHZYa8LYEFkeU4GFceWENf77O7/bNv38Nb8rh9DymQmM40oNKyUqJhEXQ2R51APLXa21sCQDSsWhIbJ9qoHlxBWHpRFVDGv2nlpgqUeixbBCiGyfSmAlcVkLK4Yjc92P+bWZ3LgoLOtxwbamgZXEdRb8fwrvlaCwYHsorDPGxRDZq2aBvVuvM9239iCypSaBpcaF+1Z/1I/IMx+JW7BiT9UD21uvHuNiiOyhamDvjkbon9oR2fN6MaxYxcC8Ho1bpmma3/mifsnvHX+BTdeP71dvqgSG9VrnccWwYA2EK+YtMvHAsF4QwoI14nXFEBhUJRoYjsd0XlYMCwZVITBFHlasSWA4Hh/Ci74XWDBlva+YWGB7F3zwCwsGVSEwqErsD2/xM7A018tl+BzG4WPAz8FAGMXlTbPAvK+Xx7hIk8AQ1zMuOh49wRFZmdflYk0u+V7Fcd3uH2p+Cs94+/x+ZePY57IhsErW4iJbgfVK7Ijk52KFD2Tzaisuj3AHE4a4lhCYoHdxeTseCQITguVaJ/qMVq8X/dS49has1+8iRRfM40U/jIvCwnIt4Yg8II4LXiGwQrlxebzgE/HAPByT0svV6/2LYMEy4VjMg8AylMbl9XgkVQLr8ZjEcpXBgiXguCis3Lg8rxepFlgvKxbGVUPPF3yCBdtxNC7v60WqBnbmFau9XKT39SLVF+yMkUnEhfV6wBEZQVyymgR2lhWjuCismsci83A8kmYLZj0yjusorNcSjsi71nF5WS/SNDCLK4a46mq+YJYik44LXqkckfxVrvmJqREX1uuV6O/k56BHR4bPKm35e/xaF3qPgale8sNPTMs1Q1ztqC0YCR+Ay2tm/S+Sco5E5jUuohoYWYuMWAwNceVTD4xsRUYshFYSFvEeFzERGImfF68d2tqdEHHlMxMYiSMjrUM7GhZBXE+mAiNrkZE4tFBpdGsxsdyoGOJaMhcYKwlNQmlYBHG9MhsY2YosVhrdkZhCCGub6cBIamRaENc+84Exa6EhrDSnCYxph4awcgzDf+q3W3MzmblgAAAAAElFTkSuQmCC;" parent="1" vertex="1"><mxGeometry x="389.32" y="2724" width="131.36" height="70" as="geometry"/></mxCell><mxCell id="243" value="&lt;pre style=&quot;background-color: rgb(255, 255, 255); line-height: 40%;&quot;&gt;&lt;font face=&quot;Helvetica&quot;&gt;&lt;b&gt;Commodity&lt;/b&gt;&lt;/font&gt;&lt;/pre&gt;&lt;pre style=&quot;background-color: rgb(255, 255, 255); line-height: 40%;&quot;&gt;&lt;font face=&quot;Helvetica&quot;&gt;&lt;b&gt;ManagementService&lt;/b&gt;&lt;/font&gt;&lt;font color=&quot;#080808&quot;&gt;&lt;br&gt;&lt;/font&gt;&lt;/pre&gt;&lt;pre style=&quot;background-color: rgb(255, 255, 255); color: rgb(8, 8, 8); line-height: 40%;&quot;&gt;&lt;font face=&quot;Helvetica&quot; style=&quot;font-size: 12px;&quot;&gt;&lt;b&gt;&lt;span style=&quot;color: rgb(0, 0, 0);&quot;&gt;(from &lt;/span&gt;&lt;/b&gt;&lt;/font&gt;&lt;font face=&quot;Helvetica&quot;&gt;&lt;b&gt;物资管理&lt;/b&gt;&lt;/font&gt;&lt;b style=&quot;font-family: Helvetica;&quot;&gt;模块)&lt;/b&gt;&lt;br&gt;&lt;/pre&gt;" style="text;html=1;align=center;verticalAlign=middle;resizable=0;points=[];autosize=1;strokeColor=none;fillColor=none;" parent="1" vertex="1"><mxGeometry x="378.77000000000004" y="2787" width="134" height="74" as="geometry"/></mxCell><mxCell id="244" value="" style="shape=image;imageAspect=0;aspect=fixed;verticalLabelPosition=bottom;verticalAlign=top;strokeWidth=2;fillColor=#CCFFFF;gradientColor=#87FFEF;image=data:image/png,iVBORw0KGgoAAAANSUhEUgAAAJgAAABRCAYAAAAuJW9dAAAAAXNSR0IArs4c6QAAAARnQU1BAACxjwv8YQUAAAAJcEhZcwAAEk4AABJOAV4u5coAAAOCSURBVHhe7dxBbtswEIVhuei+h5HP1JwpPZN1mO4LpJ5YA1O0JJPUkDPivG9jrwo0+fPIBIkuX3cDQCVdBPbncp3f5fv9dZvfQQ2nC+xITCkQnKzTBLYX1nggimnj30VoMswHFod1JKYUa8EhtnJmA2sdVgyhyTAXmHZYa8LYEFkeU4GFceWENf77O7/bNv38Nb8rh9DymQmM40oNKyUqJhEXQ2R51APLXa21sCQDSsWhIbJ9qoHlxBWHpRFVDGv2nlpgqUeixbBCiGyfSmAlcVkLK4Yjc92P+bWZ3LgoLOtxwbamgZXEdRb8fwrvlaCwYHsorDPGxRDZq2aBvVuvM9239iCypSaBpcaF+1Z/1I/IMx+JW7BiT9UD21uvHuNiiOyhamDvjkbon9oR2fN6MaxYxcC8Ho1bpmma3/mifsnvHX+BTdeP71dvqgSG9VrnccWwYA2EK+YtMvHAsF4QwoI14nXFEBhUJRoYjsd0XlYMCwZVITBFHlasSWA4Hh/Ci74XWDBlva+YWGB7F3zwCwsGVSEwqErsD2/xM7A018tl+BzG4WPAz8FAGMXlTbPAvK+Xx7hIk8AQ1zMuOh49wRFZmdflYk0u+V7Fcd3uH2p+Cs94+/x+ZePY57IhsErW4iJbgfVK7Ijk52KFD2Tzaisuj3AHE4a4lhCYoHdxeTseCQITguVaJ/qMVq8X/dS49has1+8iRRfM40U/jIvCwnIt4Yg8II4LXiGwQrlxebzgE/HAPByT0svV6/2LYMEy4VjMg8AylMbl9XgkVQLr8ZjEcpXBgiXguCis3Lg8rxepFlgvKxbGVUPPF3yCBdtxNC7v60WqBnbmFau9XKT39SLVF+yMkUnEhfV6wBEZQVyymgR2lhWjuCismsci83A8kmYLZj0yjusorNcSjsi71nF5WS/SNDCLK4a46mq+YJYik44LXqkckfxVrvmJqREX1uuV6O/k56BHR4bPKm35e/xaF3qPgale8sNPTMs1Q1ztqC0YCR+Ay2tm/S+Sco5E5jUuohoYWYuMWAwNceVTD4xsRUYshFYSFvEeFzERGImfF68d2tqdEHHlMxMYiSMjrUM7GhZBXE+mAiNrkZE4tFBpdGsxsdyoGOJaMhcYKwlNQmlYBHG9MhsY2YosVhrdkZhCCGub6cBIamRaENc+84Exa6EhrDSnCYxph4awcgzDf+q3W3MzmblgAAAAAElFTkSuQmCC;" parent="1" vertex="1"><mxGeometry x="588.89" y="2732" width="131.36" height="70" as="geometry"/></mxCell><mxCell id="245" value="&lt;pre style=&quot;background-color: rgb(255, 255, 255); line-height: 40%;&quot;&gt;&lt;font face=&quot;Helvetica&quot;&gt;&lt;b&gt;OfficeSuppliesPurchase&lt;/b&gt;&lt;/font&gt;&lt;/pre&gt;&lt;pre style=&quot;background-color: rgb(255, 255, 255); line-height: 40%;&quot;&gt;&lt;font face=&quot;Helvetica&quot;&gt;&lt;b&gt;Service&lt;/b&gt;&lt;/font&gt;&lt;font color=&quot;#080808&quot;&gt;&lt;br&gt;&lt;/font&gt;&lt;/pre&gt;&lt;pre style=&quot;background-color: rgb(255, 255, 255); color: rgb(8, 8, 8); line-height: 40%;&quot;&gt;&lt;font face=&quot;Helvetica&quot; style=&quot;font-size: 12px;&quot;&gt;&lt;b&gt;&lt;span style=&quot;color: rgb(0, 0, 0);&quot;&gt;(from &lt;/span&gt;&lt;/b&gt;&lt;/font&gt;&lt;font face=&quot;Helvetica&quot;&gt;&lt;b&gt;办公耗材采购&lt;/b&gt;&lt;/font&gt;&lt;b style=&quot;font-family: Helvetica;&quot;&gt;&lt;font face=&quot;Helvetica&quot;&gt;模块)&lt;/font&gt;&lt;/b&gt;&lt;br&gt;&lt;/pre&gt;" style="text;html=1;align=center;verticalAlign=middle;resizable=0;points=[];autosize=1;strokeColor=none;fillColor=none;" parent="1" vertex="1"><mxGeometry x="570.23" y="2791" width="156" height="74" as="geometry"/></mxCell><mxCell id="246" value="" style="shape=image;imageAspect=0;aspect=fixed;verticalLabelPosition=bottom;verticalAlign=top;strokeWidth=2;fillColor=#CCFFFF;gradientColor=#87FFEF;image=data:image/png,iVBORw0KGgoAAAANSUhEUgAAAJgAAABRCAYAAAAuJW9dAAAAAXNSR0IArs4c6QAAAARnQU1BAACxjwv8YQUAAAAJcEhZcwAAEk4AABJOAV4u5coAAAOCSURBVHhe7dxBbtswEIVhuei+h5HP1JwpPZN1mO4LpJ5YA1O0JJPUkDPivG9jrwo0+fPIBIkuX3cDQCVdBPbncp3f5fv9dZvfQQ2nC+xITCkQnKzTBLYX1nggimnj30VoMswHFod1JKYUa8EhtnJmA2sdVgyhyTAXmHZYa8LYEFkeU4GFceWENf77O7/bNv38Nb8rh9DymQmM40oNKyUqJhEXQ2R51APLXa21sCQDSsWhIbJ9qoHlxBWHpRFVDGv2nlpgqUeixbBCiGyfSmAlcVkLK4Yjc92P+bWZ3LgoLOtxwbamgZXEdRb8fwrvlaCwYHsorDPGxRDZq2aBvVuvM9239iCypSaBpcaF+1Z/1I/IMx+JW7BiT9UD21uvHuNiiOyhamDvjkbon9oR2fN6MaxYxcC8Ho1bpmma3/mifsnvHX+BTdeP71dvqgSG9VrnccWwYA2EK+YtMvHAsF4QwoI14nXFEBhUJRoYjsd0XlYMCwZVITBFHlasSWA4Hh/Ci74XWDBlva+YWGB7F3zwCwsGVSEwqErsD2/xM7A018tl+BzG4WPAz8FAGMXlTbPAvK+Xx7hIk8AQ1zMuOh49wRFZmdflYk0u+V7Fcd3uH2p+Cs94+/x+ZePY57IhsErW4iJbgfVK7Ijk52KFD2Tzaisuj3AHE4a4lhCYoHdxeTseCQITguVaJ/qMVq8X/dS49has1+8iRRfM40U/jIvCwnIt4Yg8II4LXiGwQrlxebzgE/HAPByT0svV6/2LYMEy4VjMg8AylMbl9XgkVQLr8ZjEcpXBgiXguCis3Lg8rxepFlgvKxbGVUPPF3yCBdtxNC7v60WqBnbmFau9XKT39SLVF+yMkUnEhfV6wBEZQVyymgR2lhWjuCismsci83A8kmYLZj0yjusorNcSjsi71nF5WS/SNDCLK4a46mq+YJYik44LXqkckfxVrvmJqREX1uuV6O/k56BHR4bPKm35e/xaF3qPgale8sNPTMs1Q1ztqC0YCR+Ay2tm/S+Sco5E5jUuohoYWYuMWAwNceVTD4xsRUYshFYSFvEeFzERGImfF68d2tqdEHHlMxMYiSMjrUM7GhZBXE+mAiNrkZE4tFBpdGsxsdyoGOJaMhcYKwlNQmlYBHG9MhsY2YosVhrdkZhCCGub6cBIamRaENc+84Exa6EhrDSnCYxph4awcgzDf+q3W3MzmblgAAAAAElFTkSuQmCC;" parent="1" vertex="1"><mxGeometry x="80.86999999999999" y="3063" width="131.36" height="70" as="geometry"/></mxCell><mxCell id="247" value="&lt;pre style=&quot;background-color: rgb(255, 255, 255); line-height: 40%;&quot;&gt;&lt;font face=&quot;Helvetica&quot;&gt;&lt;b&gt;CarrierRecordService&lt;/b&gt;&lt;/font&gt;&lt;br&gt;&lt;/pre&gt;&lt;pre style=&quot;background-color: rgb(255, 255, 255); color: rgb(8, 8, 8); line-height: 40%;&quot;&gt;&lt;font face=&quot;Helvetica&quot; style=&quot;font-size: 12px;&quot;&gt;&lt;b&gt;&lt;span style=&quot;color: rgb(0, 0, 0);&quot;&gt;(from &lt;/span&gt;&lt;/b&gt;&lt;/font&gt;&lt;font face=&quot;Helvetica&quot;&gt;&lt;b&gt;承运商业务记录&lt;/b&gt;&lt;/font&gt;&lt;b style=&quot;font-family: Helvetica;&quot;&gt;模块)&lt;/b&gt;&lt;br&gt;&lt;/pre&gt;" style="text;html=1;align=center;verticalAlign=middle;resizable=0;points=[];autosize=1;strokeColor=none;fillColor=none;" parent="1" vertex="1"><mxGeometry x="50.44" y="3131" width="164" height="58" as="geometry"/></mxCell><mxCell id="248" value="" style="shape=image;imageAspect=0;aspect=fixed;verticalLabelPosition=bottom;verticalAlign=top;strokeWidth=2;fillColor=#CCFFFF;gradientColor=#87FFEF;image=data:image/png,iVBORw0KGgoAAAANSUhEUgAAAJgAAABRCAYAAAAuJW9dAAAAAXNSR0IArs4c6QAAAARnQU1BAACxjwv8YQUAAAAJcEhZcwAAEk4AABJOAV4u5coAAAOCSURBVHhe7dxBbtswEIVhuei+h5HP1JwpPZN1mO4LpJ5YA1O0JJPUkDPivG9jrwo0+fPIBIkuX3cDQCVdBPbncp3f5fv9dZvfQQ2nC+xITCkQnKzTBLYX1nggimnj30VoMswHFod1JKYUa8EhtnJmA2sdVgyhyTAXmHZYa8LYEFkeU4GFceWENf77O7/bNv38Nb8rh9DymQmM40oNKyUqJhEXQ2R51APLXa21sCQDSsWhIbJ9qoHlxBWHpRFVDGv2nlpgqUeixbBCiGyfSmAlcVkLK4Yjc92P+bWZ3LgoLOtxwbamgZXEdRb8fwrvlaCwYHsorDPGxRDZq2aBvVuvM9239iCypSaBpcaF+1Z/1I/IMx+JW7BiT9UD21uvHuNiiOyhamDvjkbon9oR2fN6MaxYxcC8Ho1bpmma3/mifsnvHX+BTdeP71dvqgSG9VrnccWwYA2EK+YtMvHAsF4QwoI14nXFEBhUJRoYjsd0XlYMCwZVITBFHlasSWA4Hh/Ci74XWDBlva+YWGB7F3zwCwsGVSEwqErsD2/xM7A018tl+BzG4WPAz8FAGMXlTbPAvK+Xx7hIk8AQ1zMuOh49wRFZmdflYk0u+V7Fcd3uH2p+Cs94+/x+ZePY57IhsErW4iJbgfVK7Ijk52KFD2Tzaisuj3AHE4a4lhCYoHdxeTseCQITguVaJ/qMVq8X/dS49has1+8iRRfM40U/jIvCwnIt4Yg8II4LXiGwQrlxebzgE/HAPByT0svV6/2LYMEy4VjMg8AylMbl9XgkVQLr8ZjEcpXBgiXguCis3Lg8rxepFlgvKxbGVUPPF3yCBdtxNC7v60WqBnbmFau9XKT39SLVF+yMkUnEhfV6wBEZQVyymgR2lhWjuCismsci83A8kmYLZj0yjusorNcSjsi71nF5WS/SNDCLK4a46mq+YJYik44LXqkckfxVrvmJqREX1uuV6O/k56BHR4bPKm35e/xaF3qPgale8sNPTMs1Q1ztqC0YCR+Ay2tm/S+Sco5E5jUuohoYWYuMWAwNceVTD4xsRUYshFYSFvEeFzERGImfF68d2tqdEHHlMxMYiSMjrUM7GhZBXE+mAiNrkZE4tFBpdGsxsdyoGOJaMhcYKwlNQmlYBHG9MhsY2YosVhrdkZhCCGub6cBIamRaENc+84Exa6EhrDSnCYxph4awcgzDf+q3W3MzmblgAAAAAElFTkSuQmCC;" parent="1" vertex="1"><mxGeometry x="252.42999999999998" y="3071" width="131.36" height="70" as="geometry"/></mxCell><mxCell id="249" value="&lt;pre style=&quot;background-color: rgb(255, 255, 255); line-height: 40%;&quot;&gt;&lt;font face=&quot;Helvetica&quot;&gt;&lt;b&gt;RailwayTaskService&lt;/b&gt;&lt;/font&gt;&lt;br&gt;&lt;/pre&gt;&lt;pre style=&quot;background-color: rgb(255, 255, 255); color: rgb(8, 8, 8); line-height: 40%;&quot;&gt;&lt;font face=&quot;Helvetica&quot; style=&quot;font-size: 12px;&quot;&gt;&lt;b&gt;&lt;span style=&quot;color: rgb(0, 0, 0);&quot;&gt;(from &lt;/span&gt;&lt;/b&gt;&lt;/font&gt;&lt;font face=&quot;Helvetica&quot;&gt;&lt;b&gt;铁路运输待办&lt;/b&gt;&lt;/font&gt;&lt;b style=&quot;font-family: Helvetica;&quot;&gt;模块)&lt;/b&gt;&lt;br&gt;&lt;/pre&gt;" style="text;html=1;align=center;verticalAlign=middle;resizable=0;points=[];autosize=1;strokeColor=none;fillColor=none;" parent="1" vertex="1"><mxGeometry x="228.56" y="3138" width="152" height="58" as="geometry"/></mxCell><mxCell id="253" value="" style="shape=image;imageAspect=0;aspect=fixed;verticalLabelPosition=bottom;verticalAlign=top;strokeWidth=2;fillColor=#CCFFFF;gradientColor=#87FFEF;image=data:image/png,iVBORw0KGgoAAAANSUhEUgAAAJgAAABRCAYAAAAuJW9dAAAAAXNSR0IArs4c6QAAAARnQU1BAACxjwv8YQUAAAAJcEhZcwAAEk4AABJOAV4u5coAAAOCSURBVHhe7dxBbtswEIVhuei+h5HP1JwpPZN1mO4LpJ5YA1O0JJPUkDPivG9jrwo0+fPIBIkuX3cDQCVdBPbncp3f5fv9dZvfQQ2nC+xITCkQnKzTBLYX1nggimnj30VoMswHFod1JKYUa8EhtnJmA2sdVgyhyTAXmHZYa8LYEFkeU4GFceWENf77O7/bNv38Nb8rh9DymQmM40oNKyUqJhEXQ2R51APLXa21sCQDSsWhIbJ9qoHlxBWHpRFVDGv2nlpgqUeixbBCiGyfSmAlcVkLK4Yjc92P+bWZ3LgoLOtxwbamgZXEdRb8fwrvlaCwYHsorDPGxRDZq2aBvVuvM9239iCypSaBpcaF+1Z/1I/IMx+JW7BiT9UD21uvHuNiiOyhamDvjkbon9oR2fN6MaxYxcC8Ho1bpmma3/mifsnvHX+BTdeP71dvqgSG9VrnccWwYA2EK+YtMvHAsF4QwoI14nXFEBhUJRoYjsd0XlYMCwZVITBFHlasSWA4Hh/Ci74XWDBlva+YWGB7F3zwCwsGVSEwqErsD2/xM7A018tl+BzG4WPAz8FAGMXlTbPAvK+Xx7hIk8AQ1zMuOh49wRFZmdflYk0u+V7Fcd3uH2p+Cs94+/x+ZePY57IhsErW4iJbgfVK7Ijk52KFD2Tzaisuj3AHE4a4lhCYoHdxeTseCQITguVaJ/qMVq8X/dS49has1+8iRRfM40U/jIvCwnIt4Yg8II4LXiGwQrlxebzgE/HAPByT0svV6/2LYMEy4VjMg8AylMbl9XgkVQLr8ZjEcpXBgiXguCis3Lg8rxepFlgvKxbGVUPPF3yCBdtxNC7v60WqBnbmFau9XKT39SLVF+yMkUnEhfV6wBEZQVyymgR2lhWjuCismsci83A8kmYLZj0yjusorNcSjsi71nF5WS/SNDCLK4a46mq+YJYik44LXqkckfxVrvmJqREX1uuV6O/k56BHR4bPKm35e/xaF3qPgale8sNPTMs1Q1ztqC0YCR+Ay2tm/S+Sco5E5jUuohoYWYuMWAwNceVTD4xsRUYshFYSFvEeFzERGImfF68d2tqdEHHlMxMYiSMjrUM7GhZBXE+mAiNrkZE4tFBpdGsxsdyoGOJaMhcYKwlNQmlYBHG9MhsY2YosVhrdkZhCCGub6cBIamRaENc+84Exa6EhrDSnCYxph4awcgzDf+q3W3MzmblgAAAAAElFTkSuQmCC;" parent="1" vertex="1"><mxGeometry x="411.88" y="3063" width="131.36" height="70" as="geometry"/></mxCell><mxCell id="254" value="&lt;pre style=&quot;background-color: rgb(255, 255, 255); line-height: 40%;&quot;&gt;&lt;font face=&quot;Helvetica&quot;&gt;&lt;b&gt;TransportRecordService&lt;/b&gt;&lt;/font&gt;&lt;br&gt;&lt;/pre&gt;&lt;pre style=&quot;background-color: rgb(255, 255, 255); color: rgb(8, 8, 8); line-height: 40%;&quot;&gt;&lt;font face=&quot;Helvetica&quot; style=&quot;font-size: 12px;&quot;&gt;&lt;b&gt;&lt;span style=&quot;color: rgb(0, 0, 0);&quot;&gt;(from &lt;/span&gt;&lt;/b&gt;&lt;/font&gt;&lt;font face=&quot;Helvetica&quot;&gt;&lt;b&gt;单车运营记录&lt;/b&gt;&lt;/font&gt;&lt;b style=&quot;font-family: Helvetica;&quot;&gt;模块)&lt;/b&gt;&lt;br&gt;&lt;/pre&gt;" style="text;html=1;align=center;verticalAlign=middle;resizable=0;points=[];autosize=1;strokeColor=none;fillColor=none;" parent="1" vertex="1"><mxGeometry x="389.33000000000004" y="3134" width="158" height="58" as="geometry"/></mxCell><mxCell id="255" value="" style="shape=image;imageAspect=0;aspect=fixed;verticalLabelPosition=bottom;verticalAlign=top;strokeWidth=2;fillColor=#CCFFFF;gradientColor=#87FFEF;image=data:image/png,iVBORw0KGgoAAAANSUhEUgAAAJgAAABRCAYAAAAuJW9dAAAAAXNSR0IArs4c6QAAAARnQU1BAACxjwv8YQUAAAAJcEhZcwAAEk4AABJOAV4u5coAAAOCSURBVHhe7dxBbtswEIVhuei+h5HP1JwpPZN1mO4LpJ5YA1O0JJPUkDPivG9jrwo0+fPIBIkuX3cDQCVdBPbncp3f5fv9dZvfQQ2nC+xITCkQnKzTBLYX1nggimnj30VoMswHFod1JKYUa8EhtnJmA2sdVgyhyTAXmHZYa8LYEFkeU4GFceWENf77O7/bNv38Nb8rh9DymQmM40oNKyUqJhEXQ2R51APLXa21sCQDSsWhIbJ9qoHlxBWHpRFVDGv2nlpgqUeixbBCiGyfSmAlcVkLK4Yjc92P+bWZ3LgoLOtxwbamgZXEdRb8fwrvlaCwYHsorDPGxRDZq2aBvVuvM9239iCypSaBpcaF+1Z/1I/IMx+JW7BiT9UD21uvHuNiiOyhamDvjkbon9oR2fN6MaxYxcC8Ho1bpmma3/mifsnvHX+BTdeP71dvqgSG9VrnccWwYA2EK+YtMvHAsF4QwoI14nXFEBhUJRoYjsd0XlYMCwZVITBFHlasSWA4Hh/Ci74XWDBlva+YWGB7F3zwCwsGVSEwqErsD2/xM7A018tl+BzG4WPAz8FAGMXlTbPAvK+Xx7hIk8AQ1zMuOh49wRFZmdflYk0u+V7Fcd3uH2p+Cs94+/x+ZePY57IhsErW4iJbgfVK7Ijk52KFD2Tzaisuj3AHE4a4lhCYoHdxeTseCQITguVaJ/qMVq8X/dS49has1+8iRRfM40U/jIvCwnIt4Yg8II4LXiGwQrlxebzgE/HAPByT0svV6/2LYMEy4VjMg8AylMbl9XgkVQLr8ZjEcpXBgiXguCis3Lg8rxepFlgvKxbGVUPPF3yCBdtxNC7v60WqBnbmFau9XKT39SLVF+yMkUnEhfV6wBEZQVyymgR2lhWjuCismsci83A8kmYLZj0yjusorNcSjsi71nF5WS/SNDCLK4a46mq+YJYik44LXqkckfxVrvmJqREX1uuV6O/k56BHR4bPKm35e/xaF3qPgale8sNPTMs1Q1ztqC0YCR+Ay2tm/S+Sco5E5jUuohoYWYuMWAwNceVTD4xsRUYshFYSFvEeFzERGImfF68d2tqdEHHlMxMYiSMjrUM7GhZBXE+mAiNrkZE4tFBpdGsxsdyoGOJaMhcYKwlNQmlYBHG9MhsY2YosVhrdkZhCCGub6cBIamRaENc+84Exa6EhrDSnCYxph4awcgzDf+q3W3MzmblgAAAAAElFTkSuQmCC;" parent="1" vertex="1"><mxGeometry x="611.4499999999999" y="3071" width="131.36" height="70" as="geometry"/></mxCell><mxCell id="256" value="&lt;pre style=&quot;background-color: rgb(255, 255, 255); line-height: 40%;&quot;&gt;&lt;font face=&quot;Helvetica&quot;&gt;&lt;b&gt;TransportTaskService&lt;/b&gt;&lt;/font&gt;&lt;br&gt;&lt;/pre&gt;&lt;pre style=&quot;background-color: rgb(255, 255, 255); color: rgb(8, 8, 8); line-height: 40%;&quot;&gt;&lt;font face=&quot;Helvetica&quot; style=&quot;font-size: 12px;&quot;&gt;&lt;b&gt;&lt;span style=&quot;color: rgb(0, 0, 0);&quot;&gt;(from &lt;/span&gt;&lt;/b&gt;&lt;/font&gt;&lt;b&gt;&lt;font face=&quot;Helvetica&quot;&gt;运输任务管理&lt;/font&gt;&lt;/b&gt;&lt;b style=&quot;font-family: Helvetica;&quot;&gt;&lt;font face=&quot;Helvetica&quot;&gt;模块)&lt;/font&gt;&lt;/b&gt;&lt;br&gt;&lt;/pre&gt;" style="text;html=1;align=center;verticalAlign=middle;resizable=0;points=[];autosize=1;strokeColor=none;fillColor=none;" parent="1" vertex="1"><mxGeometry x="594.79" y="3138" width="152" height="58" as="geometry"/></mxCell><mxCell id="267" value="&lt;b&gt;&lt;span style=&quot;&quot;&gt;BuildingDao&lt;br&gt;(from 建筑构物信息模块)&lt;br&gt;&lt;/span&gt;&lt;/b&gt;" style="text;html=1;align=center;verticalAlign=middle;resizable=0;points=[];autosize=1;strokeColor=none;fillColor=none;" parent="1" vertex="1"><mxGeometry x="210" y="3407" width="152" height="41" as="geometry"/></mxCell><mxCell id="277" value="&lt;b&gt;&lt;span style=&quot;&quot;&gt;Address&lt;/span&gt;&lt;span style=&quot;&quot;&gt;DaO&lt;br&gt;(from 地址基本信息模块)&lt;br&gt;&lt;/span&gt;&lt;/b&gt;" style="text;html=1;align=center;verticalAlign=middle;resizable=0;points=[];autosize=1;strokeColor=none;fillColor=none;" parent="1" vertex="1"><mxGeometry x="389" y="3406" width="152" height="41" as="geometry"/></mxCell><mxCell id="287" value="&lt;b&gt;EquipmentDao&lt;/b&gt;&lt;br&gt;&lt;b&gt;(from 机电设备信息模块)&lt;/b&gt;" style="text;html=1;align=center;verticalAlign=middle;resizable=0;points=[];autosize=1;strokeColor=none;fillColor=none;" parent="1" vertex="1"><mxGeometry x="203.12" y="3638" width="152" height="41" as="geometry"/></mxCell><mxCell id="297" value="&lt;b&gt;&lt;span style=&quot;&quot;&gt;GoodDao&lt;br&gt;(from 货物基本信息模块)&lt;br&gt;&lt;/span&gt;&lt;/b&gt;" style="text;html=1;align=center;verticalAlign=middle;resizable=0;points=[];autosize=1;strokeColor=none;fillColor=none;" parent="1" vertex="1"><mxGeometry x="388.12" y="3636" width="152" height="41" as="geometry"/></mxCell><mxCell id="307" value="&lt;b&gt;&lt;span style=&quot;&quot;&gt;PersonnelDao&lt;br&gt;(from 人员信息管理模块)&lt;br&gt;&lt;/span&gt;&lt;/b&gt;" style="text;html=1;align=center;verticalAlign=middle;resizable=0;points=[];autosize=1;strokeColor=none;fillColor=none;" parent="1" vertex="1"><mxGeometry x="205.13" y="3519" width="152" height="41" as="geometry"/></mxCell><mxCell id="317" value="&lt;b&gt;&lt;span style=&quot;&quot;&gt;VehicleDao&lt;br&gt;(from 车辆信息管理模块)&lt;br&gt;&lt;/span&gt;&lt;/b&gt;" style="text;html=1;align=center;verticalAlign=middle;resizable=0;points=[];autosize=1;strokeColor=none;fillColor=none;" parent="1" vertex="1"><mxGeometry x="390.13" y="3519" width="152" height="41" as="geometry"/></mxCell><mxCell id="327" value="&lt;b&gt;&lt;span style=&quot;&quot;&gt;CompanyDao&lt;br&gt;(from 公司信息管理模块)&lt;br&gt;&lt;/span&gt;&lt;/b&gt;" style="text;html=1;align=center;verticalAlign=middle;resizable=0;points=[];autosize=1;strokeColor=none;fillColor=none;" parent="1" vertex="1"><mxGeometry x="31.870000000000005" y="3638" width="152" height="41" as="geometry"/></mxCell><mxCell id="337" value="&lt;b&gt;&lt;span style=&quot;&quot;&gt;MaterialDao&lt;br&gt;(from 物资信息管理模块)&lt;br&gt;&lt;/span&gt;&lt;/b&gt;" style="text;html=1;align=center;verticalAlign=middle;resizable=0;points=[];autosize=1;strokeColor=none;fillColor=none;" parent="1" vertex="1"><mxGeometry x="33.879999999999995" y="3519" width="152" height="41" as="geometry"/></mxCell><mxCell id="349" value="&lt;b&gt;CertificateDao&lt;br&gt;(from&amp;nbsp;&lt;/b&gt;&lt;span style=&quot;background-color: rgb(255, 255, 255);&quot;&gt;&lt;font style=&quot;font-size: 12px;&quot;&gt;&lt;b style=&quot;&quot;&gt;证件基本信息&lt;/b&gt;&lt;/font&gt;&lt;/span&gt;&lt;b style=&quot;background-color: initial;&quot;&gt;模块)&lt;/b&gt;" style="text;html=1;align=center;verticalAlign=middle;resizable=0;points=[];autosize=1;strokeColor=none;fillColor=none;" parent="1" vertex="1"><mxGeometry x="32" y="3407" width="152" height="41" as="geometry"/></mxCell><mxCell id="360" value="" style="ellipse;whiteSpace=wrap;html=1;fillColor=#FFD966;strokeColor=#d6b656;" parent="1" vertex="1"><mxGeometry x="81.88" y="3358" width="56.69" height="40" as="geometry"/></mxCell><mxCell id="362" value="" style="ellipse;whiteSpace=wrap;html=1;fillColor=#FFD966;strokeColor=#d6b656;" parent="1" vertex="1"><mxGeometry x="255" y="3361" width="56.69" height="40" as="geometry"/></mxCell><mxCell id="363" value="" style="ellipse;whiteSpace=wrap;html=1;fillColor=#FFD966;strokeColor=#d6b656;" parent="1" vertex="1"><mxGeometry x="428.31" y="3361" width="56.69" height="40" as="geometry"/></mxCell><mxCell id="364" value="" style="ellipse;whiteSpace=wrap;html=1;fillColor=#FFD966;strokeColor=#d6b656;" parent="1" vertex="1"><mxGeometry x="85.88" y="3468" width="56.69" height="40" as="geometry"/></mxCell><mxCell id="365" value="" style="ellipse;whiteSpace=wrap;html=1;fillColor=#FFD966;strokeColor=#d6b656;" parent="1" vertex="1"><mxGeometry x="259" y="3471" width="56.69" height="40" as="geometry"/></mxCell><mxCell id="366" value="" style="ellipse;whiteSpace=wrap;html=1;fillColor=#FFD966;strokeColor=#d6b656;" parent="1" vertex="1"><mxGeometry x="432.31" y="3471" width="56.69" height="40" as="geometry"/></mxCell><mxCell id="367" value="" style="ellipse;whiteSpace=wrap;html=1;fillColor=#FFD966;strokeColor=#d6b656;" parent="1" vertex="1"><mxGeometry x="83.75" y="3589" width="56.69" height="40" as="geometry"/></mxCell><mxCell id="368" value="" style="ellipse;whiteSpace=wrap;html=1;fillColor=#FFD966;strokeColor=#d6b656;" parent="1" vertex="1"><mxGeometry x="256.87" y="3592" width="56.69" height="40" as="geometry"/></mxCell><mxCell id="369" value="" style="ellipse;whiteSpace=wrap;html=1;fillColor=#FFD966;strokeColor=#d6b656;" parent="1" vertex="1"><mxGeometry x="430.18" y="3592" width="56.69" height="40" as="geometry"/></mxCell><mxCell id="370" value="&lt;b&gt;Cargo&lt;br&gt;ManagementDao&lt;/b&gt;&lt;br&gt;&lt;b&gt;(from 建筑构物信息模块)&lt;/b&gt;" style="text;html=1;align=center;verticalAlign=middle;resizable=0;points=[];autosize=1;strokeColor=none;fillColor=none;" parent="1" vertex="1"><mxGeometry x="217.13000000000002" y="3892" width="152" height="56" as="geometry"/></mxCell><mxCell id="371" value="&lt;b&gt;Commodity&lt;br&gt;ManagementDaO&lt;/b&gt;&lt;br&gt;&lt;b&gt;(from 地址基本信息模块)&lt;/b&gt;" style="text;html=1;align=center;verticalAlign=middle;resizable=0;points=[];autosize=1;strokeColor=none;fillColor=none;" parent="1" vertex="1"><mxGeometry x="395.13" y="3891" width="152" height="56" as="geometry"/></mxCell><mxCell id="374" value="&lt;b&gt;Personnel&lt;br&gt;ManagementDao&lt;/b&gt;&lt;br&gt;&lt;b&gt;(from 人员信息管理模块)&lt;/b&gt;" style="text;html=1;align=center;verticalAlign=middle;resizable=0;points=[];autosize=1;strokeColor=none;fillColor=none;" parent="1" vertex="1"><mxGeometry x="212.26000000000002" y="4004" width="152" height="56" as="geometry"/></mxCell><mxCell id="375" value="&lt;b&gt;Vehicle&lt;br&gt;ManagementDao&lt;/b&gt;&lt;br&gt;&lt;b&gt;(from 车辆信息管理模块)&lt;/b&gt;" style="text;html=1;align=center;verticalAlign=middle;resizable=0;points=[];autosize=1;strokeColor=none;fillColor=none;" parent="1" vertex="1"><mxGeometry x="396.26" y="4004" width="152" height="56" as="geometry"/></mxCell><mxCell id="377" value="&lt;b&gt;OfficeSuppliesPurchaseDao&lt;/b&gt;&lt;br&gt;&lt;b&gt;(from 物资信息管理模块)&lt;/b&gt;" style="text;html=1;align=center;verticalAlign=middle;resizable=0;points=[];autosize=1;strokeColor=none;fillColor=none;" parent="1" vertex="1"><mxGeometry x="27.00999999999999" y="4011" width="179" height="41" as="geometry"/></mxCell><mxCell id="378" value="&lt;b&gt;BuildingLeasingDao&lt;/b&gt;&lt;br&gt;&lt;b&gt;(from&amp;nbsp;&lt;/b&gt;&lt;span style=&quot;background-color: rgb(255, 255, 255);&quot;&gt;&lt;font style=&quot;font-size: 12px;&quot;&gt;&lt;b style=&quot;&quot;&gt;证件基本信息&lt;/b&gt;&lt;/font&gt;&lt;/span&gt;&lt;b style=&quot;background-color: initial;&quot;&gt;模块)&lt;/b&gt;" style="text;html=1;align=center;verticalAlign=middle;resizable=0;points=[];autosize=1;strokeColor=none;fillColor=none;" parent="1" vertex="1"><mxGeometry x="39.129999999999995" y="3899" width="152" height="41" as="geometry"/></mxCell><mxCell id="379" value="" style="ellipse;whiteSpace=wrap;html=1;fillColor=#FFD966;strokeColor=#d6b656;" parent="1" vertex="1"><mxGeometry x="88.00999999999999" y="3850" width="56.69" height="40" as="geometry"/></mxCell><mxCell id="380" value="" style="ellipse;whiteSpace=wrap;html=1;fillColor=#FFD966;strokeColor=#d6b656;" parent="1" vertex="1"><mxGeometry x="261.13" y="3853" width="56.69" height="40" as="geometry"/></mxCell><mxCell id="381" value="" style="ellipse;whiteSpace=wrap;html=1;fillColor=#FFD966;strokeColor=#d6b656;" parent="1" vertex="1"><mxGeometry x="434.44" y="3853" width="56.69" height="40" as="geometry"/></mxCell><mxCell id="382" value="" style="ellipse;whiteSpace=wrap;html=1;fillColor=#FFD966;strokeColor=#d6b656;" parent="1" vertex="1"><mxGeometry x="92.00999999999999" y="3960" width="56.69" height="40" as="geometry"/></mxCell><mxCell id="383" value="" style="ellipse;whiteSpace=wrap;html=1;fillColor=#FFD966;strokeColor=#d6b656;" parent="1" vertex="1"><mxGeometry x="265.13" y="3963" width="56.69" height="40" as="geometry"/></mxCell><mxCell id="384" value="" style="ellipse;whiteSpace=wrap;html=1;fillColor=#FFD966;strokeColor=#d6b656;" parent="1" vertex="1"><mxGeometry x="438.44" y="3963" width="56.69" height="40" as="geometry"/></mxCell><mxCell id="388" value="&lt;b&gt;RailwayTaskDao&lt;/b&gt;&lt;br&gt;&lt;b&gt;(from&amp;nbsp;&lt;/b&gt;&lt;span style=&quot;background-color: rgb(255, 255, 255);&quot;&gt;&lt;b style=&quot;&quot;&gt;&lt;font style=&quot;font-size: 12px;&quot;&gt;铁路运输待办&lt;/font&gt;&lt;/b&gt;&lt;/span&gt;&lt;b style=&quot;background-color: initial;&quot;&gt;模块)&lt;/b&gt;" style="text;html=1;align=center;verticalAlign=middle;resizable=0;points=[];autosize=1;strokeColor=none;fillColor=none;" parent="1" vertex="1"><mxGeometry x="204.00000000000003" y="4189" width="152" height="41" as="geometry"/></mxCell><mxCell id="389" value="&lt;b&gt;TransportTaskDao&lt;/b&gt;&lt;br&gt;&lt;b&gt;(from&amp;nbsp;&lt;/b&gt;&lt;span style=&quot;background-color: rgb(255, 255, 255); font-family: 宋体, monospace;&quot;&gt;&lt;b style=&quot;&quot;&gt;&lt;font style=&quot;font-size: 12px;&quot;&gt;运输任务管理&lt;/font&gt;&lt;/b&gt;&lt;/span&gt;&lt;b style=&quot;background-color: initial;&quot;&gt;模块)&lt;/b&gt;" style="text;html=1;align=center;verticalAlign=middle;resizable=0;points=[];autosize=1;strokeColor=none;fillColor=none;" parent="1" vertex="1"><mxGeometry x="203.13" y="4294" width="158" height="42" as="geometry"/></mxCell><mxCell id="390" value="&lt;b&gt;TransportRecordDao&lt;/b&gt;&lt;br&gt;&lt;b&gt;(from&amp;nbsp;&lt;/b&gt;&lt;span style=&quot;background-color: rgb(255, 255, 255);&quot;&gt;&lt;b style=&quot;&quot;&gt;&lt;font style=&quot;font-size: 12px;&quot;&gt;单车运营记录&lt;/font&gt;&lt;/b&gt;&lt;/span&gt;&lt;b style=&quot;background-color: initial;&quot;&gt;模块)&lt;/b&gt;" style="text;html=1;align=center;verticalAlign=middle;resizable=0;points=[];autosize=1;strokeColor=none;fillColor=none;" parent="1" vertex="1"><mxGeometry x="27.87999999999999" y="4300" width="152" height="41" as="geometry"/></mxCell><mxCell id="391" value="&lt;b&gt;CarrierRecordDao&lt;/b&gt;&lt;br&gt;&lt;b&gt;(from&amp;nbsp;&lt;/b&gt;&lt;span style=&quot;background-color: rgb(255, 255, 255);&quot;&gt;&lt;font style=&quot;font-size: 12px;&quot;&gt;&lt;b style=&quot;&quot;&gt;承运商业务记录&lt;/b&gt;&lt;/font&gt;&lt;/span&gt;&lt;b style=&quot;background-color: initial;&quot;&gt;模块)&lt;/b&gt;" style="text;html=1;align=center;verticalAlign=middle;resizable=0;points=[];autosize=1;strokeColor=none;fillColor=none;" parent="1" vertex="1"><mxGeometry x="19.999999999999993" y="4188" width="164" height="41" as="geometry"/></mxCell><mxCell id="392" value="" style="ellipse;whiteSpace=wrap;html=1;fillColor=#FFD966;strokeColor=#d6b656;" parent="1" vertex="1"><mxGeometry x="74.88" y="4138" width="56.69" height="40" as="geometry"/></mxCell><mxCell id="393" value="" style="ellipse;whiteSpace=wrap;html=1;fillColor=#FFD966;strokeColor=#d6b656;" parent="1" vertex="1"><mxGeometry x="248" y="4141" width="56.69" height="40" as="geometry"/></mxCell><mxCell id="394" value="" style="ellipse;whiteSpace=wrap;html=1;fillColor=#FFD966;strokeColor=#d6b656;" parent="1" vertex="1"><mxGeometry x="244.44" y="4248" width="56.69" height="40" as="geometry"/></mxCell><mxCell id="395" value="" style="ellipse;whiteSpace=wrap;html=1;fillColor=#FFD966;strokeColor=#d6b656;" parent="1" vertex="1"><mxGeometry x="78.88" y="4248" width="56.69" height="40" as="geometry"/></mxCell><mxCell id="406" value="Internet" style="html=1;outlineConnect=0;fillColor=#CCCCCC;strokeColor=#6881B3;gradientColor=none;gradientDirection=north;strokeWidth=2;shape=mxgraph.networks.cloud;fontColor=#ffffff;" parent="1" vertex="1"><mxGeometry x="325" y="4608" width="192.12" height="50" as="geometry"/></mxCell><mxCell id="416" value="" style="rounded=0;whiteSpace=wrap;html=1;dashed=1;" parent="1" vertex="1"><mxGeometry x="132" y="4408" width="546" height="100" as="geometry"/></mxCell><mxCell id="421" value="" style="fontColor=#0066CC;verticalAlign=top;verticalLabelPosition=bottom;labelPosition=center;align=center;html=1;outlineConnect=0;fillColor=#CCCCCC;strokeColor=#6881B3;gradientColor=default;gradientDirection=north;strokeWidth=2;shape=mxgraph.networks.pc;sketch=1;" parent="1" vertex="1"><mxGeometry x="349" y="4429" width="100" height="70" as="geometry"/></mxCell><mxCell id="422" value="" style="fontColor=#0066CC;verticalAlign=top;verticalLabelPosition=bottom;labelPosition=center;align=center;html=1;outlineConnect=0;fillColor=#CCCCCC;strokeColor=#6881B3;gradientColor=default;gradientDirection=north;strokeWidth=2;shape=mxgraph.networks.mobile;sketch=1;" parent="1" vertex="1"><mxGeometry x="533" y="4414" width="50" height="85" as="geometry"/></mxCell><mxCell id="425" value="" style="html=1;outlineConnect=0;fillColor=#CCCCCC;strokeColor=#6881B3;gradientColor=none;gradientDirection=north;strokeWidth=2;shape=mxgraph.networks.comm_link_edge;html=1;rounded=0;entryX=0.571;entryY=1.115;entryDx=0;entryDy=0;entryPerimeter=0;" parent="1" source="406" target="435" edge="1"><mxGeometry width="100" height="100" relative="1" as="geometry"><mxPoint x="198" y="4601" as="sourcePoint"/><mxPoint x="220" y="4509" as="targetPoint"/></mxGeometry></mxCell><mxCell id="434" value="https" style="edgeLabel;html=1;align=center;verticalAlign=middle;resizable=0;points=[];" parent="425" vertex="1" connectable="0"><mxGeometry x="0.5896" y="-5" relative="1" as="geometry"><mxPoint as="offset"/></mxGeometry></mxCell><mxCell id="427" value="" style="html=1;outlineConnect=0;fillColor=#CCCCCC;strokeColor=#6881B3;gradientColor=none;gradientDirection=north;strokeWidth=2;shape=mxgraph.networks.comm_link_edge;html=1;rounded=0;entryX=0.62;entryY=1.057;entryDx=0;entryDy=0;entryPerimeter=0;" parent="1" source="406" target="421" edge="1"><mxGeometry width="100" height="100" relative="1" as="geometry"><mxPoint x="379" y="4596" as="sourcePoint"/><mxPoint x="479" y="4496" as="targetPoint"/></mxGeometry></mxCell><mxCell id="433" value="https" style="edgeLabel;html=1;align=center;verticalAlign=middle;resizable=0;points=[];" parent="427" vertex="1" connectable="0"><mxGeometry x="0.4183" y="-4" relative="1" as="geometry"><mxPoint as="offset"/></mxGeometry></mxCell><mxCell id="428" value="" style="html=1;outlineConnect=0;fillColor=#CCCCCC;strokeColor=#6881B3;gradientColor=none;gradientDirection=north;strokeWidth=2;shape=mxgraph.networks.comm_link_edge;html=1;rounded=0;" parent="1" source="406" edge="1"><mxGeometry width="100" height="100" relative="1" as="geometry"><mxPoint x="515" y="4596" as="sourcePoint"/><mxPoint x="561" y="4505" as="targetPoint"/></mxGeometry></mxCell><mxCell id="432" value="https" style="edgeLabel;html=1;align=center;verticalAlign=middle;resizable=0;points=[];" parent="428" vertex="1" connectable="0"><mxGeometry x="0.1159" y="-7" relative="1" as="geometry"><mxPoint x="27" y="-24" as="offset"/></mxGeometry></mxCell><mxCell id="435" value="" style="image;html=1;image=img/lib/clip_art/computers/MacBook_128x128.png;sketch=1;gradientColor=default;" parent="1" vertex="1"><mxGeometry x="172" y="4421" width="80" height="80" as="geometry"/></mxCell><mxCell id="438" value="" style="shape=image;imageAspect=0;aspect=fixed;verticalLabelPosition=bottom;verticalAlign=top;sketch=1;gradientColor=default;image=data:image/png,iVBORw0KGgoAAAANSUhEUgAAACsAAAAxCAYAAABDEFA9AAAAAXNSR0IArs4c6QAAAARnQU1BAACxjwv8YQUAAAAJcEhZcwAAEk4AABJOAV4u5coAAATwSURBVGhD7ZpZKH1fFMe3ayaZp8hQHgxRkmTIwzU9eKKQB0SmDE8keTBGeSRFhgdJeBUvpsKb5MkQMkU8mMs8rd/e5677+7nXvtc5zrm/f7/6f2p1z953D99z7tlrr7UxAwr5R1Dh5z/B/2JNhUnEHh4e4pWyKCr25OSEVFdXE7VaTTIyMsjq6ip+oxDMG8jl4eEBurq6wNfXl3mW32ZnZwc1NTVAbwJbykO22MnJSYiJidERqW9BQUHQ19cHd3d32Otn/Fgs/YkhOzubK86QJSQkwPT0NI4gHcliT09Pob6+HpydnbmCvjNLS0soKCiA9fV1HFE8osW+vLzA0NAQBAcHc0VINXd3d2hsbITz83Oc4XtEiZ2bm4OUlBTupHItLCwMhoeHhYfxHUbFbm1tQWFhofDT8SZS0pKTk2F+fh5n5sMVe3FxAW1tbeDq6sod2FRmYWEBZWVlsL29jUp00RF7f38PY2NjEBoayh3sb5mPjw90dnYKD+0zv8W+vb0B3X24nT9bVFQUVFVVCSuaDcprY8y8vb2htLQUcnJywMrKittGa0lJSXB9fY0KP4l9fn6GxMREbietlZSUwNXVFfYAODg4gKKiIm5bnvn7+8PKygr2BsG7WFtbc9syYze2u7uLrfXEpqamcjsxY+/Tzs4Otv7D09MTZGVlcfvoG1us+rDdjdeWWWBgIOzv72NLANGBjEqlIq+vr1j6A30ypL+/n8THx2ONYehGglcaPj4+iJmZGZa+R1LURW8Or3RxcnIiAwMDhAYyWMOHifuMofEMoViIGBISQgYHB4m9vT3WKI+i8WxaWhrp7e0VXhlTIGvUo6Mjcnl5iSUNeXl5pKGhAUvKIkvs8vIyqays/LLwmpubSW5uLpaUQ5ZYGxsbMjExQdrb27FGg7m5Oenp6SFxcXFYowyyxDJRjJaWFjIyMiJca3FxcSHU6ZOAgACskQf79VQzMzNCQYq/40EDEEJDSSxpoLGvcBNMuFyY21PFxsYKBak+T5/Hx0dBMN2CsUYDTWVIR0eHcM3bVMTCNh+Vg4MDFuVDt0ZSXFxMbm9vsUYDDVwIjSsI3Zqx5mco7hAXFhZIeXm5zlNkr1h3dzehsQHW/AzFxTLGx8dJU1MTljQwzyEmfjCGScQyaPAsBDhKYjKxbPXW1dUJr4VSSBKr796+iwHYQqMZBVlfX8caXaS6S9Fi2ZOiaQiWNND0Ga8Mww7raAojfOojNeDRaW1scpqj6exSzK+yhSSGzc1Nkp+fT2hqjzUaRkdHuTehhel5f3/HEoWlCwyWMLIkkFUZMxqgAF3poFarud8bMzc3N6CBD9BAR0hxWKrEa6e16OhofsLIuLm5EY4u/fz8uJ3/ljk6OkJtbS0cHx+jMg06YrXs7e1BRUUF2NracgczpWVmZupkwJ/hitWyuLgI6enp3EGVtsjISKBrAOhCxtm/YlQsg26bwilNeHg4dxK55uHhIZy+0IwDZzSMNN/xX4Oiv4U6eKAZAXh6enKfkFRjJ5PsGImtD7GIFquFDc7cDg1MuCLEGDv5WVpawhHFI1msltnZWckHzNqDY2OLyBg/Fstg51xiju69vLygtbX1yxGmVGSJ1XJ2dsb9owhNKIVdcWNjA1vKQxGxWtbW1oRzV7Z4aKANU1NT+I0ymOT/DdjhR0REBKHbJtYoASG/AFKNd0VNNIJBAAAAAElFTkSuQmCC;" parent="1" vertex="1"><mxGeometry x="397" y="4716" width="43" height="49" as="geometry"/></mxCell><mxCell id="440" value="" style="rounded=0;whiteSpace=wrap;html=1;dashed=1;sketch=0;fillColor=none;gradientColor=default;fontSize=22;" parent="1" vertex="1"><mxGeometry x="338" y="4826" width="172" height="100" as="geometry"/></mxCell><mxCell id="441" value="" style="sketch=0;aspect=fixed;html=1;points=[];align=center;image;fontSize=22;image=img/lib/mscae/Docker.svg;dashed=1;fillColor=none;gradientColor=default;" parent="1" vertex="1"><mxGeometry x="243" y="4751" width="83" height="68.07" as="geometry"/></mxCell><mxCell id="447" value="" style="aspect=fixed;perimeter=ellipsePerimeter;html=1;align=center;shadow=0;dashed=0;fontColor=#4277BB;labelBackgroundColor=#ffffff;fontSize=22;spacingTop=3;image;image=img/lib/ibm/applications/application_logic.svg;sketch=0;fillColor=none;gradientColor=default;" parent="1" vertex="1"><mxGeometry x="372" y="5022" width="73" height="73" as="geometry"/></mxCell><mxCell id="449" value="" style="sketch=0;aspect=fixed;html=1;points=[];align=center;image;fontSize=22;image=img/lib/mscae/Azure_Database_for_MySQL_servers.svg;dashed=1;fillColor=none;gradientColor=default;" parent="1" vertex="1"><mxGeometry x="256" y="5015" width="55.92" height="73.58" as="geometry"/></mxCell><mxCell id="450" value="" style="rounded=0;whiteSpace=wrap;html=1;dashed=1;sketch=0;fillColor=none;gradientColor=default;fontSize=22;" parent="1" vertex="1"><mxGeometry x="800" y="4794" width="139" height="66" as="geometry"/></mxCell><mxCell id="451" value="数据&lt;br style=&quot;font-size: 22px;&quot;&gt;持久化" style="endArrow=classic;html=1;rounded=0;entryX=0.5;entryY=0;entryDx=0;entryDy=0;exitX=0.5;exitY=1;exitDx=0;exitDy=0;fontSize=22;" parent="1" target="450" edge="1"><mxGeometry x="1" y="-61" width="50" height="50" relative="1" as="geometry"><mxPoint x="381" y="4953" as="sourcePoint"/><mxPoint x="518" y="4930" as="targetPoint"/><mxPoint x="-4" y="3" as="offset"/></mxGeometry></mxCell><mxCell id="453" value="" style="rounded=0;whiteSpace=wrap;html=1;dashed=1;sketch=0;fillColor=none;gradientColor=default;fontSize=22;" parent="1" vertex="1"><mxGeometry x="690" y="4979" width="97" height="65.66" as="geometry"/></mxCell><mxCell id="454" value="" style="rounded=0;whiteSpace=wrap;html=1;dashed=1;sketch=0;fillColor=none;gradientColor=default;" parent="1" vertex="1"><mxGeometry x="388" y="4708" width="66" height="66" as="geometry"/></mxCell><mxCell id="456" value="" style="endArrow=classic;html=1;rounded=0;exitX=0.5;exitY=1;exitDx=0;exitDy=0;entryX=0.411;entryY=-0.099;entryDx=0;entryDy=0;entryPerimeter=0;fontSize=22;" parent="1" source="440" target="453" edge="1"><mxGeometry width="50" height="50" relative="1" as="geometry"><mxPoint x="511" y="4773" as="sourcePoint"/><mxPoint x="561" y="4723" as="targetPoint"/></mxGeometry></mxCell><mxCell id="457" value="日志管理" style="edgeLabel;html=1;align=center;verticalAlign=middle;resizable=0;points=[];fontSize=22;" parent="456" vertex="1" connectable="0"><mxGeometry x="-0.4698" relative="1" as="geometry"><mxPoint x="95" y="15" as="offset"/></mxGeometry></mxCell><mxCell id="460" value="" style="endArrow=classic;startArrow=classic;html=1;rounded=0;entryX=0.5;entryY=1;entryDx=0;entryDy=0;fontSize=22;" parent="1" target="454" edge="1"><mxGeometry width="50" height="50" relative="1" as="geometry"><mxPoint x="421" y="4824" as="sourcePoint"/><mxPoint x="544" y="4683" as="targetPoint"/></mxGeometry></mxCell><mxCell id="461" value="" style="endArrow=classic;startArrow=classic;html=1;rounded=0;entryX=0.5;entryY=1;entryDx=0;entryDy=0;entryPerimeter=0;exitX=0.5;exitY=0;exitDx=0;exitDy=0;" parent="1" source="454" target="406" edge="1"><mxGeometry width="50" height="50" relative="1" as="geometry"><mxPoint x="486" y="4677" as="sourcePoint"/><mxPoint x="536" y="4627" as="targetPoint"/></mxGeometry></mxCell><mxCell id="462" value="" style="whiteSpace=wrap;html=1;aspect=fixed;dashed=1;sketch=0;fillColor=none;gradientColor=default;" parent="1" vertex="1"><mxGeometry x="-286" y="4666" width="315" height="315" as="geometry"/></mxCell><mxCell id="465" value="&lt;font style=&quot;font-size: 22px;&quot;&gt;应用服务节点&lt;/font&gt;" style="text;html=1;align=center;verticalAlign=middle;resizable=0;points=[];autosize=1;strokeColor=none;fillColor=none;fontSize=22;" parent="1" vertex="1"><mxGeometry x="204" y="4812" width="150" height="39" as="geometry"/></mxCell><mxCell id="466" value="&lt;font style=&quot;font-size: 22px;&quot;&gt;认证授权&lt;/font&gt;" style="sketch=0;points=[[0,0,0],[0.25,0,0],[0.5,0,0],[0.75,0,0],[1,0,0],[0,1,0],[0.25,1,0],[0.5,1,0],[0.75,1,0],[1,1,0],[0,0.25,0],[0,0.5,0],[0,0.75,0],[1,0.25,0],[1,0.5,0],[1,0.75,0]];outlineConnect=0;fontColor=#232F3E;gradientColor=#F54749;gradientDirection=north;fillColor=#C7131F;strokeColor=#ffffff;dashed=0;verticalLabelPosition=bottom;verticalAlign=top;align=center;html=1;fontSize=22;fontStyle=0;aspect=fixed;shape=mxgraph.aws4.resourceIcon;resIcon=mxgraph.aws4.cognito;" parent="1" vertex="1"><mxGeometry x="344" y="4845" width="23" height="23" as="geometry"/></mxCell><mxCell id="467" value="&lt;p style=&quot;line-height: 0%; font-size: 22px;&quot;&gt;&lt;br style=&quot;font-size: 22px;&quot;&gt;&lt;/p&gt;" style="aspect=fixed;perimeter=ellipsePerimeter;html=1;align=center;shadow=0;dashed=0;fontColor=#4277BB;labelBackgroundColor=#ffffff;fontSize=22;spacingTop=3;image;image=img/lib/ibm/management/process_management.svg;sketch=0;fillColor=none;gradientColor=default;" parent="1" vertex="1"><mxGeometry x="430" y="4828" width="29" height="29" as="geometry"/></mxCell><mxCell id="468" value="&lt;font color=&quot;#4277bb&quot; style=&quot;font-size: 22px;&quot;&gt;&lt;span style=&quot;background-color: rgb(255, 255, 255); font-size: 22px;&quot;&gt;网页前台管理&lt;/span&gt;&lt;/font&gt;" style="text;html=1;align=center;verticalAlign=middle;resizable=0;points=[];autosize=1;strokeColor=none;fillColor=none;fontSize=22;" parent="1" vertex="1"><mxGeometry x="368" y="4846" width="150" height="39" as="geometry"/></mxCell><mxCell id="469" value="&lt;p style=&quot;line-height: 0%; font-size: 22px;&quot;&gt;&lt;br style=&quot;font-size: 22px;&quot;&gt;&lt;/p&gt;" style="aspect=fixed;perimeter=ellipsePerimeter;html=1;align=center;shadow=0;dashed=0;fontColor=#4277BB;labelBackgroundColor=#ffffff;fontSize=22;spacingTop=3;image;image=img/lib/ibm/management/process_management.svg;sketch=0;fillColor=none;gradientColor=default;" parent="1" vertex="1"><mxGeometry x="403" y="4871" width="29" height="29" as="geometry"/></mxCell><mxCell id="471" value="&lt;font color=&quot;#4277bb&quot; style=&quot;font-size: 22px;&quot;&gt;后台管理系统&lt;/font&gt;" style="text;html=1;align=center;verticalAlign=middle;resizable=0;points=[];autosize=1;strokeColor=none;fillColor=none;fontSize=22;" parent="1" vertex="1"><mxGeometry x="341" y="4888" width="150" height="39" as="geometry"/></mxCell></root></mxGraphModel></diagram><diagram name="Page-2" id="ChAb-FZpVKy8EQ0p3CoE"><mxGraphModel dx="1007" dy="532" grid="1" gridSize="10" guides="1" tooltips="1" connect="1" arrows="1" fold="1" page="1" pageScale="1" pageWidth="850" pageHeight="1100" math="0" shadow="0"><root><mxCell id="0"/><mxCell id="1" parent="0"/></root></mxGraphModel></diagram></mxfile>